<svg xmlns="http://www.w3.org/2000/svg"><defs><font id="bitterregular" horiz-adv-x="1157"><font-face units-per-em="2048" ascent="1638" descent="-410"/><glyph horiz-adv-x="2048"/><glyph horiz-adv-x="2048"/><glyph horiz-adv-x="681"/><glyph horiz-adv-x="471"/><glyph horiz-adv-x="471"/><glyph horiz-adv-x="471"/><glyph unicode="!" horiz-adv-x="655" d="M195 121q0 68 37.5 106.5T330 266q59 0 95-38t36-105q0-66-38-104.5T326-20t-95 37.5T195 121zm20 1415h236L420 512l-174-10z"/><glyph unicode="&quot;" horiz-adv-x="794" d="M133 1065v512h195l-41-512H133zm352 0v512h195l-41-512H485z"/><glyph unicode="#" horiz-adv-x="1413" d="M133 348v133h238l39 297H184v133h244l43 318h164l-43-318h297l43 318h164l-43-318h227V778h-246l-39-297h234V348H977L932 0H768l45 348H516L471 0H307l45 348H133zm402 133h296l39 297H573z"/><glyph unicode="$" horiz-adv-x="1116" d="M133 51v328h143l41-189q76-41 193-40 61 0 113.5 12t92.5 35.5 62.5 58.5 22.5 82q0 72-49.5 113t-122 71.5-157.5 58T314.5 651t-122 111.5T143 942q0 156 97.5 245T492 1298v238h153v-231q154-12 283-60l45-16-10-307H840l-52 184q-94 41-202 41-109 0-173.5-51.5T348 973q0-72 48-114t122-73.5T676 725t157.5-71 122-107.5T1004 379q0-162-99.5-260.5T645-8v-279H492v267q-43 0-89.5 5T314-2t-76.5 17.5T180 33z"/><glyph unicode="%" horiz-adv-x="1669" d="M92 1083q0 86 24.5 156t69.5 117 105.5 72.5T426 1454q147 0 234.5-89t87.5-263-93-269.5T412 737q-147 0-233.5 86T92 1083zm154 13q0-225 174-226 174 0 174 226 0 225-174 225t-174-225zM317 0l830 1434h184L502 0H317zm584 326q0 86 24.5 155.5T995 598t105.5 72.5T1235 696q147 0 234-89t87-263-92.5-269T1221-20q-147 0-233.5 86T901 326zm154 12q0-225 174-225t174 225-174 225-174-225z"/><glyph unicode="&amp;" horiz-adv-x="1372" d="M143 399q0 70 27 128.5T235.5 632t81.5 78.5 74 51.5l29 16q-35 8-77 32t-79 60.5-61.5 90T178 1085q0 186 125 277.5t352 91.5q39 0 85-6t92.5-15.5T920 1412t67-19l57-21-10-287H903l-43 164q-84 31-215 31-256 0-256-211 0-49 20.5-91t57.5-73 85-48 103-17h635V717l-164-41V430q0-215-133-332.5T618-20Q378-20 260.5 91.5T143 399zm215 2q0-123 76-185t209-62q135 0 207 68.5T922 420v256H645q-57 0-108.5-20.5t-91-56.5-63.5-86-24-112z"/><glyph unicode="'" horiz-adv-x="440" d="M133 1065v512h195l-41-512H133z"/><glyph unicode="(" horiz-adv-x="675" d="M152 565q0 154 19 282t60 246.5T337 1330t155 247h184q-147-227-233.5-488.5T356 569q0-123 21.5-262T440 29.5 540.5-238 674-471H492q-90 125-155 246T231 20.5t-60 259T152 565z"/><glyph unicode=")" horiz-adv-x="675" d="M-2 1577h184q90-129 154.5-247T442 1092.5 502.5 845 522 565q0-150-19.5-284T441 22.5 334.5-224 182-471H0q74 104 132 233T232 29.5 295.5 307 317 569q0 258-86 519.5T-2 1577z"/><glyph unicode="*" horiz-adv-x="825" d="M51 1198l49 143 248-94 27-65-62-35 72 4 14-70-133-231-123 86 170 211zm271 303l149 4-14-260 235 101 51-144-256-59 172-203-118-90-142 231 19 70 69-8-59 39 29 63-56-45-53 47z"/><glyph unicode="+" horiz-adv-x="1269" d="M102 461v164h447v460h174V625h444V461H723V0H549v461H102z"/><glyph unicode="," horiz-adv-x="542" d="M82-238Q191-93 190-20q0 10-6 25t-17 38-17.5 47.5T143 139q0 49 37 88t96 39q133 0 134-151 0-180-236-430z"/><glyph unicode="-" horiz-adv-x="768" d="M123 471v174h532V471H123z"/><glyph unicode="." horiz-adv-x="532" d="M133 121q0 68 38 106.5t97 38.5 95-38 36-105q0-66-38-104.5T264-20t-95 37.5T133 121z"/><glyph unicode="/" horiz-adv-x="1036" d="M82 0l678 1434h215L297 0H82z"/><glyph unicode="0" horiz-adv-x="1320" d="M143 717q0 737 543 737 141 0 238.5-44t158-133 88-224 27.5-316q0-758-532-757-522 0-523 737zm226 0q0-563 307-563 160 0 228.5 140T973 725q0 287-66.5 421T674 1280q-164 0-234.5-136T369 717z"/><glyph unicode="1" horiz-adv-x="1048" d="M41 1120l477 314h172V174h307V0H160v174h315v1024L127 973z"/><glyph unicode="2" horiz-adv-x="1167" d="M92 0v174q207 184 343 313t217 225.5T766 886t33 158q0 111-74 173.5T522 1280q-100 0-186-31l-29-10-20-195H123l-10 328q221 82 442 82 106 0 192.5-21.5t150-67.5 95-118.5T1024 1073q0-102-34-196.5t-110.5-198-199.5-225T379 174h686V0H92z"/><glyph unicode="3" horiz-adv-x="1126" d="M41 82l61 164q174-92 369-92 141 0 224 67.5T778 412t-91 188.5T440 666H287v163h164q141 0 224 62.5t83 169.5q0 106-72 162.5T492 1280q-111 0-197-31l-29-10-20-184H82l-10 317q221 82 436 82 213 0 339-87t126-271q0-274-266-342 137-29 217-120t80-208q0-119-47.5-204t-124-138-174-78.5T461-20q-59 0-116.5 7t-107 18-88 25.5T86 57z"/><glyph unicode="4" horiz-adv-x="1249" d="M41 492l655 972 236-30V512h235V338H932V0H721v338H61zm225 20h455v676z"/><glyph unicode="5" horiz-adv-x="1085" d="M41 82l61 164q162-92 359-92 61 0 115.5 18t94.5 54 63.5 87.5T758 432q0 135-110.5 205T338 707H123l27 727h776l-6-174H342l-18-390h65q137 0 248-30.5t187.5-88 117.5-136T983 440q0-109-41-193.5t-111.5-146T669 9.5 471-20q-59 0-117.5 7T244 5t-92 25.5T90 57z"/><glyph unicode="6" horiz-adv-x="1228" d="M123 604q0 190 48 347t142.5 268.5 234.5 173 322 61.5q94 0 154-20l-10-164q-31 4-71 7t-87 3q-98 0-173-26.5T554 1184t-91-95.5T402.5 983t-35-99-15.5-77l-4-29q23 18 64 35.5t90 33 100 25 94 9.5q92 0 172-30t139.5-86 94.5-137 35-184q0-102-39-187T992.5 110.5t-157-96T645-20q-131 0-229.5 45t-163 128-97 197.5T123 604zm215-51q0-203 87-301t216-98 205 73.5T922 430q0 276-287 277-37 0-76-6.5T486.5 683 424 659.5 377 637l-39-23v-61z"/><glyph unicode="7" horiz-adv-x="1028" d="M10 1055v379h983v-154L446 0H211l543 1249H205l-41-194H10z"/><glyph unicode="8" horiz-adv-x="1208" d="M102 389q0 78 31 140.5T212 636t95 72.5 78 43.5q-117 57-179.5 130.5T143 1075q0 186 131.5 282.5T629 1454t339.5-101.5T1085 1085q0-70-25.5-124T995 867t-85-66.5-89-40.5q133-55 209-136t76-214q0-94-37-173T964.5 100.5 801 11.5 588-20 380 9.5 227.5 93 134 222t-32 167zm226 10q0-117 72.5-180T604 156t204 63 73 180q0 74-54.5 135.5T662 639l-99 39Q327 572 328 399zm30 676q0-51 22.5-89t61.5-66.5 93.5-54.5T651 819q219 90 219 256 0 94-66.5 149.5T614 1280t-189.5-55.5T358 1075z"/><glyph unicode="9" horiz-adv-x="1228" d="M92 991q0 104 39 189.5t106.5 147 156.5 94 190 32.5q129 0 226-45t162.5-127 99.5-197.5 34-255.5q0-188-47-344.5T919.5 215 689 41 369-20q-94 0-164 20l10 164q33-4 68.5-8t76.5-4q109 0 189 27.5T686 251t93 98 57.5 108.5 31 101.5 11.5 78l2 29q-23-18-64-36t-90-33-100.5-24.5T532 563q-92 0-172.5 27.5t-140 82T126 807 92 991zm215 13q0-266 287-267 76-2 147.5 22.5T852 807l39 22v62q0 197-87 293t-216 96-205-73.5-76-202.5z"/><glyph unicode=":" horiz-adv-x="573" d="M154 121q0 68 37.5 106.5T289 266q59 0 95-38t36-105q0-66-38-104.5T285-20t-95 37.5T154 121zm0 667q0 72 39.5 108t95.5 36q55 0 93-38t38-106q0-66-38-104.5T285 645q-60 0-97 37-35 41-34 106z"/><glyph unicode=";" horiz-adv-x="573" d="M92-238l92-77Q420-65 420 115q0 152-133 151-66 0-99.5-40T154 127q0-23 8-46.5t17-44T194.5 0t6.5-29q0-12-7.5-33.5t-19.5-46-26.5-49T119-201zm60 1026q0 70 40.5 107t94.5 37q55 0 93-38t38-106-39-105.5-98-37.5q-58 0-95 37-35 41-34 106z"/><glyph unicode="&lt;" horiz-adv-x="1249" d="M102 471v143l1045 471V911L328 543l819-379V-10z"/><glyph unicode="=" horiz-adv-x="1228" d="M113 276v164h1003V276H113zm0 400v164h1003V676H113z"/><glyph unicode="&gt;" horiz-adv-x="1249" d="M102-10v174l820 379-820 368v174l1045-471V471z"/><glyph unicode="?" horiz-adv-x="985" d="M174 1479q137 47 258 47 90 0 167-17.5t134.5-55.5 88-98.5T852 1208q0-51-16.5-101t-43-95-60.5-84-68-68q-94-78-143.5-140.5T473 606l4-127-184-12q-18 137-19 195 0 41 21.5 78.5T351 815t76 72 81 69q129 111 129 232 0 164-215 164-51 2-97-5.5t-87-15.5l-31-6zm94-1358q0 68 38 106.5t97 38.5 95.5-38T535 123q0-66-38.5-104.5T399-20t-95 37.5T268 121z"/><glyph unicode="@" horiz-adv-x="1679" d="M133 698q0 172 52.5 312.5t147.5 239T561 1401t295 53 292-50 220-143.5 139-226.5 49-297q0-197-93-308.5T1210 317q-76 0-138 33t-85 103q-18-25-48-47.5t-63.5-40T808 337t-63-11q-111 0-169 58t-58 171q0 227 332 227h111v99q0 113-140 112-70 0-174-30l-35-11-37 117q152 63 287 64 262 0 262-236V530q0-43 26-66.5t71-23.5q80 0 126 76t46 211q0 131-38 236.5T1246.5 1144t-172 115.5T846 1300q-125 0-226.5-39.5t-173-115.5T336 960.5 297 715q0-276 135-429t377-153q117 0 215 39l31 12 82-123Q994-21 799-20q-326 0-496 187T133 698zm545-133q0-104 106-104 41 0 86 21.5t68 45.5l23 25v119h-99q-100 0-142-27t-42-80z"/><glyph unicode="A" horiz-adv-x="1484" d="M10 0v123l168 39 467 1261 205 11 455-1272 170-39V0H881v123l190 39-78 227H461l-80-227 192-39V0H10zm506 553h422l-207 616z"/><glyph unicode="B" horiz-adv-x="1290" d="M82 0v123l174 41v1106l-174 41v112l379 11h235q201 0 321-90.5t120-268.5q0-264-267-332 160-37 239-122.5t79-210.5Q1188 0 666 0H82zm379 164h215q297 0 297 235 0 147-89 207t-270 60H461V164zm0 655h153q143 0 225.5 58.5T922 1047q0 113-65.5 168T686 1270H461V819z"/><glyph unicode="C" horiz-adv-x="1320" d="M82 690q0 174 48 315.5t138 241T484 1400t284 54q47 0 103.5-7t110.5-19.5 102.5-25.5 78.5-26l66-24-10-346h-154l-55 233q-111 41-262 41-209 0-320-151.5T317 705q0-274 120-407.5T758 164q45 0 97 10t101.5 29.5 90 41T1114 287l53 41 82-133q-45-45-103.5-84t-125-69-138-46T737-20q-313 0-484 181T82 690z"/><glyph unicode="D" horiz-adv-x="1495" d="M123 0v123l174 41v1106l-174 41v112l389 11h256q152 0 271.5-46.5T1242 1252t127-219 44-298-48-303-136-231.5T1016 52 737 0H123zm389 164h236q203 0 316.5 139T1178 723q0 283-111 415t-309 132H512V164z"/><glyph unicode="E" horiz-adv-x="1280" d="M123 0v123l174 41v1106l-174 41v112l389 11h625v-349h-133l-52 185H512V829h471V666H512V164h471l41 205h133V0H123z"/><glyph unicode="F" horiz-adv-x="1167" d="M82 0v123l174 41v1106l-174 41v112l389 11h625v-338H963l-52 174H471V809h471V645H471V164l205-41V0H82z"/><glyph unicode="G" horiz-adv-x="1538" d="M123 690q0 174 48 315.5t138 241T525 1400t284 54q47 0 103.5-7t110.5-19.5 102.5-25.5 78.5-26l66-24-10-338h-134l-61 225q-127 41-277 41-209 0-319.5-149.5T358 702q0-276 121-412t330-136q125 0 248 39l39 12v336l-174 41v112l532 11V582l-154-41V102q-2 0-36.5-19.5t-101-43T998.5-2 778-20q-313 0-484 181T123 690z"/><glyph unicode="H" horiz-adv-x="1628" d="M82 0v123l174 41v1106l-174 41v112l584 11v-123l-195-41V819h686v451l-194 41v112l583 11v-123l-174-41V164l174-41V0H963v123l194 41v491H471V164l195-41V0H82z"/><glyph unicode="I" horiz-adv-x="727" d="M82 0v123l174 41v1106l-174 41v112l563 11v-123l-174-41V164l174-41V0H82z"/><glyph unicode="J" horiz-adv-x="735" d="M-41-297l18 154H80q184 0 184 194v1219l-174 41v112l563 11v-123l-174-41V92q0-186-103.5-292.5T90-307z"/><glyph unicode="K" horiz-adv-x="1454" d="M82 0v123l174 41v1106l-174 41v112l584 11v-123l-195-41V819h188l355 604 338 11v-123l-203-41-311-518 422-588 174-41V0H850v123l174 41-352 491H471V164l195-41V0H82z"/><glyph unicode="L" horiz-adv-x="1085" d="M72 0v123l174 41v1106l-174 41v112l563 11v-123l-174-41V164h420l41 235h143V0H72z"/><glyph unicode="M" horiz-adv-x="1792" d="M82 0v123l174 41v1106l-174 41v112l461 11 370-820 387 809 431 11v-123l-175-41V164l175-41V0h-574v123l195 41v1024l-62-154-317-645-164-10-317 665-52 144V164l195-41V0H82z"/><glyph unicode="N" horiz-adv-x="1617" d="M82 0v123l174 41v1106l-174 41v112l430 11 676-1145v981l-174 41v112l532 11v-123l-174-41V0h-256L440 1128V164l195-41V0H82z"/><glyph unicode="O" horiz-adv-x="1546" d="M123 700q0 172 46 311.5t134 239T513 1402t271 52q150 0 268.5-50t201.5-144.5 126-227.5 43-299-49-304-138-237.5T1022 36 745-20q-301 0-461.5 186T123 700zm235 17q0-563 400-563 205 0 317.5 143T1188 727q0 553-410 553-420 0-420-563z"/><glyph unicode="P" horiz-adv-x="1208" d="M82 0v123l174 41v1106l-174 41v112l389 11h215q227 0 349-113t122-307q0-236-144.5-359T604 532H471V164l174-41V0H82zm389 696h133q338 0 338 287 0 127-69.5 207T676 1270H471V696z"/><glyph unicode="Q" horiz-adv-x="1546" d="M123 709q0 168 50 305t140 235.5T529 1401t278 53 270.5-49 199.5-142.5 124-226.5 43-299q0-139-33-257t-93.5-212T1171 108.5 977 10l221-133q137-82 215-82 59 0 162 53l33 19 82-123q-207-123-318-123-80 0-266 113L698-16Q417 7 270 190T123 709zm225 12q0-279 107.5-423T778 154q217 0 329 144t112 429q0 553-420 553-219 0-335-139.5T348 721z"/><glyph unicode="R" horiz-adv-x="1331" d="M82 0v123l174 41v1106l-174 41v112l389 11h225q217 0 339-98.5t122-270.5q0-301-266-399 49-43 123-185l162-325 145-33V0h-307L840 379q-72 154-124 200t-153 46h-92V164l174-41V0H82zm389 778h154q150 0 233.5 67.5T942 1024q0 113-71.5 179.5T686 1270H471V778z"/><glyph unicode="S" horiz-adv-x="1224" d="M143 61v359h164l41-215q37-20 100.5-35.5T573 154t119 15 101 44 68.5 69 25.5 91q0 59-33 99t-85 69.5-117.5 52T518 641q-72 31-138.5 62.5T261 781t-83 111.5-31 162.5q0 102 40 178t106.5 125 156 72.5T637 1454q45 0 96-6t100.5-15.5T926 1412t73-19l66-21-10-348H922l-70 219q-57 18-113.5 26.5T623 1278t-107.5-15.5-82.5-42-52.5-59.5-18.5-67q2-86 57.5-135.5t137.5-84T734 809t176-77 135.5-119.5T1100 420q0-106-41-188T946 93.5 776 7 565-23q-45 0-97 6.5T365.5-1 272 19.5 201 41z"/><glyph unicode="T" d="M20 1065v369h1117v-369h-133l-52 205H686V164l205-41V0H266v123l205 41v1106H205l-51-205H20z"/><glyph unicode="U" horiz-adv-x="1617" d="M82 1311v112l584 11v-123l-195-41V553q0-225 78-312t264-87 260 95 74 335v686l-195 41v112l584 11v-123l-174-41V584q0-301-127-452.5T807-20 381 120 256 553v717z"/><glyph unicode="V" horiz-adv-x="1433" d="M10 1311v112l574 11v-123l-187-39 322-996 342 994-191 41v112l553 11v-123l-159-41L809 0H604L168 1270z"/><glyph unicode="W" horiz-adv-x="2119" d="M10 1311v112l574 11v-123l-178-41 219-928 338 1081 194 11 332-1115 254 951-187 41v112l553 11v-123l-161-41L1587 0h-225l-305 1163-64-231L717 0H512L170 1270z"/><glyph unicode="X" horiz-adv-x="1433" d="M20 0v123l134 31 430 573-379 543-154 41v112l543 11v-123l-133-41 266-389 266 389-143 41v112l543 11v-123l-185-41-368-533 399-573 174-41V0H860v123l123 31-287 419-307-409 174-41V0H20z"/><glyph unicode="Y" horiz-adv-x="1320" d="M20 1311v112l512 11v-123l-139-41 273-574 301 574-158 41v112l491 11v-123l-126-37-406-739V164l174-41V0H379v123l174 41v366l-395 742z"/><glyph unicode="Z" horiz-adv-x="1259" d="M82 0v143l819 1127H328l-52-205H143v369h1035v-144L358 164h635l41 205h133V0H82z"/><glyph unicode="[" horiz-adv-x="706" d="M184-471v2048l441-10v-133l-246-23V-305l246-23v-133z"/><glyph unicode="\" horiz-adv-x="1036" d="M61 1434h215L954 0H739z"/><glyph unicode="]" horiz-adv-x="706" d="M82-328l246 23v1716l-246 23v133l440 10V-471L82-461v133z"/><glyph unicode="^" horiz-adv-x="1167" d="M123 655l389 779h143l389-779H866l-288 574-281-574H123z"/><glyph unicode="_" horiz-adv-x="1024" d="M0-164h1024v-143H0v143z"/><glyph unicode="`" horiz-adv-x="860" d="M195 1556l102 154 379-297-82-113z"/><glyph unicode="a" d="M92 287q0 317 471 317h164v164q0 184-195 184-111 0-182-22l-24-8-29-154H164l-10 256q221 82 405 82 180 0 276.5-72.5T932 788V164l164-41V10L778 0l-43 143Q572-20 414-20h-2q-160 0-240 79.5T92 287zm209 20q0-80 38-122t110-42q35 0 70.5 12.5t69.5 31 60.5 40T692 266l35 41v164H584q-154 0-218.5-40T301 307z"/><glyph unicode="b" horiz-adv-x="1198" d="M0 1454v113l369 10V987q150 119 307 119 217 0 323.5-141.5T1106 563q0-127-37-234.5t-108.5-185T784.5 23 543-20q-104 2-187.5 9T209 16l-45 15v1382zM369 164q49-20 213-21 82 0 140 31t96 85 55.5 129T891 551q0 184-62.5 287.5T635 942q-102 0-164.5-40T369 809V164z"/><glyph unicode="c" horiz-adv-x="1044" d="M82 535q0 127 38 232t107.5 180 168 117 218.5 42q41 0 84-6t84-14.5 76-19.5 60-22l45-20-11-276H819l-31 174q-80 20-184 20-147 0-227-94t-80-293 84-305.5T614 143q43 0 85 8.5t80 21.5 69 29.5 49 33.5l35 30 72-123-23-18q-25-20-68-46t-95-47.5T707.5-5 594-20q-250 0-381 148T82 535z"/><glyph unicode="d" horiz-adv-x="1259" d="M92 516q0 268 137.5 429T635 1106q100 0 194-33v340l-174 41v113l379 10V164l174-41V10L860 0l-16 117Q707-20 506-20q-199 0-306.5 142T92 516zm215 16q0-180 62.5-284.5T563 143q100 0 170 54 65 53 96 100v604q-72 41-215 41-307 0-307-410z"/><glyph unicode="e" horiz-adv-x="1085" d="M82 526q0 127 37 233.5T222.5 943 381 1063t203 43q430 0 430-481l-10-109-707-4q0-168 81-268.5T594 143q45 0 90 8.5t85 20.5 72.5 27.5T897 229l41 27 72-106q-70-55-128.5-87t-137-57.5T573-20q-242 0-366.5 146T82 526zm223 140h492q0 125-53.5 202.5T571 946q-117 0-186.5-78.5T305 666z"/><glyph unicode="f" horiz-adv-x="901" d="M143 922v133l185 20v123q0 186 98 292.5T707 1597q86 0 162.5-17t109.5-36l35-18v-256H870l-30 164q-51 10-140 10-168 0-168-205v-164h271l-6-153H532V164l199-51V0H154v113l174 51v758H143z"/><glyph unicode="g" horiz-adv-x="1198" d="M92-215Q92-86 229 4q33 20 78 37-55 8-89 39t-34 70q0 68 80 196l27 43q-18 6-50 37t-53 61q-55 86-55 220 0 195 122 297t329 102q115 0 182-29l22-10 359 8V963l-199-29q55-74 56-207 0-201-121-300t-330-99q-90 0-154 18l-10-192h318q201 0 305-76t104-230q0-166-135-263t-397-97Q92-512 92-215zm205 31q0-100 79-137t238-37q307 0 308 194 0 94-67 129T655 0H430q-10-4-40-25.5T344-66q-47-53-47-118zm98.5 721.5Q453 471 561 471q125 0 181.5 58.5T799 717q-1 246-226 246-235 0-235-244 0-115 57.5-181.5z"/><glyph unicode="h" horiz-adv-x="1331" d="M51 0v113l174 51v1249l-174 41v113l379 10V958q174 147 348 148 174 0 256-97.5t82-271.5V164l154-51V0H778v113l133 49v555q0 111-41 163t-129 52q-43 0-84-11.5t-77.5-30-65.5-40-47-41.5l-37-41V164l133-51V0H51z"/><glyph unicode="i" horiz-adv-x="686" d="M82 0v113l174 51v758L82 963v112l379 10V164l153-51V0H82zm133 1423q0 68 38 106t95 38q133 0 133-154 0-63-45-98t-96-35q-55 0-90 38t-35 105z"/><glyph unicode="j" horiz-adv-x="591" d="M-82-481l19 143H39q104 0 144 52.5T223-133V922L49 963v112l379 10V-92q0-186-97.5-293T49-492zm254 1904q0 68 39 106t94 38q133 0 133-154 0-63-45-98t-96-35q-55 0-90 38t-35 105z"/><glyph unicode="k" horiz-adv-x="1198" d="M51 0v113l174 51v1249l-174 41v113l379 10V676h174l154 258-92 29v112l450 10V963l-145-25h-2L758 625l264-461h2l154-51V0H901L608 522H430V164l133-51V0H51z"/><glyph unicode="l" horiz-adv-x="649" d="M51 0v113l174 51v1249l-174 41v113l383 10V164l205-51V0H51z"/><glyph unicode="m" horiz-adv-x="2007" d="M82 0v113l174 51v758L82 963v112l338 10 18-145q29 27 70 56.5t90 54 103.5 40T809 1106q207 0 285-176 37 37 86 68.5t101 56 102.5 38 91.5 13.5q317 0 317-369V164l154-51V0h-492v113l133 51v553q0 113-39 164t-127 51q-43 0-83-11.5t-74.5-30-61-40T1159 809l-33-41V164l134-51V0H788v113l134 51v553q0 113-39 164t-127 51q-43 0-83-11.5t-75-30-61.5-40T494 809l-33-41V164l133-51V0H82z"/><glyph unicode="n" horiz-adv-x="1361" d="M82 0v113l174 51v758L82 963v112l338 10 18-145q20 16 57 45t87.5 55.5 111 46T819 1106q166 0 247-97.5t81-271.5V164l153-51V0H809v113l133 51v553q0 111-43 163t-131 52q-43 0-85-11.5t-78-30-63.5-40T496 809l-35-41V164l133-51V0H82z"/><glyph unicode="o" horiz-adv-x="1167" d="M82 526q0 131 38 238.5T227.5 948 392 1065t210 41q229 0 356-145.5T1085 557q0-127-36.5-232.5t-103-182T783.5 23 571-20q-233 0-361 139T82 526zm215 17q0-399 287-400 150 0 218 102.5T870 553q0 389-276 389-297 0-297-399z"/><glyph unicode="p" horiz-adv-x="1259" d="M51 963v112l348 10 17-114q143 135 311 135 217 0 328.5-142.5T1167 559q0-127-33.5-233.5t-103-183T857.5 23 614-20q-86 0-184 28v-325l215-41v-113H61v113l164 41V922zm379-779q63-41 215-41 307 0 307 410 0 180-65.5 284.5T686 942q-78 0-146.5-35.5T430 799V184z"/><glyph unicode="q" horiz-adv-x="1187" d="M92 512q0 133 37 242.5T238.5 942t177 121 239.5 43q199 0 334-31l45-10V-317l164-41v-113H625v113l204 41V98Q680-20 525-20h-3Q92-20 92 512zm215 23q0-184 62.5-288T563 143q102 0 165 40t101 93v646q-59 20-217 20-80 0-137-29.5t-94-84-55.5-129T307 535z"/><glyph unicode="r" horiz-adv-x="952" d="M82 0v113l174 51v758L82 963v112l338 10 18-149q152 170 310 170 84 0 161-25l23-6-10-297H788l-30 154q-176 0-297-160V164l205-51V0H82z"/><glyph unicode="s" horiz-adv-x="964" d="M94 328h144l22-176q20-8 64.5-13.5T412 133q133 0 193.5 40T666 295q0 55-42 88t-105.5 55.5-138.5 45T241.5 542 136 635 94 786q0 154 102.5 235t272.5 85q72-2 146.5-11.5T768 1061l51-17-6-276H680l-33 160q-16 6-63 15t-101 9q-37 0-69.5-6t-58-20.5-41-41T299 819q0-59 42-93t105.5-58.5 138-47 138-58.5T828 471t42-145q0-86-36.5-151.5t-99-110T589-1.5 412-23q-35 0-73 3.5T264-11 195.5 0 143 12L96 25z"/><glyph unicode="t" horiz-adv-x="808" d="M41 922v133l205 20v258l205 41v-299h297V922H451V264q0-125 102-125 66 0 160 51l55-108Q629-20 481-20q-104 0-169.5 68.5T246 276v646H41z"/><glyph unicode="u" horiz-adv-x="1331" d="M41 963v112l379 10V367q0-109 43-161t131-52 161.5 41T864 274l37 41v607l-174 41v112l379 10V164l174-41V10L942 0l-20 143Q836 67 727 23.5T543-20q-164 0-246 96t-82 270v576z"/><glyph unicode="v" horiz-adv-x="1144" d="M10 963v112l461 10V963l-143-21 243-758 246 748-141 31v112l459 10V963l-113-21L674 0H449L113 932z"/><glyph unicode="w" horiz-adv-x="1699" d="M10 963v112l461 10V963l-154-21 175-758 268 891 194 31 254-922 164 748-143 31v112l461 10V963l-119-21L1321 0h-236L891 635l-49 196-43-196L604 0H369L113 932z"/><glyph unicode="x" d="M10 0v113l180 47 261 383-263 391-157 29v112l467 10V963l-72-13 158-264 245 389 297 10V963l-174-31-256-379 262-393 189-47V0H647v113l82 24-168 271L307 0H10z"/><glyph unicode="y" horiz-adv-x="1181" d="M20 963v112l482 10V963l-144-21 246-717 225 707-143 31v112l485 10V963l-133-21-290-811Q646-137 596-225 442-489 195-492L63-481l19 143h102q100 0 175 84T510-4L143 932z"/><glyph unicode="z" horiz-adv-x="1034" d="M133 0v154l598 778H346l-29-154H174v307h789V932L362 154h418l29 163h143V0H133z"/><glyph unicode="{" horiz-adv-x="757" d="M61 532v144q109 0 152 55t43 158v350q0 190 81 269t267 79h92v-133q-145 0-198.5-46T444 1239V889q0-213-190-285 190-72 190-285v-432q0-123 53.5-169T696-328v-133h-92q-186 0-267 79t-81 269v432q0 102-43 157.5T61 532z"/><glyph unicode="|" horiz-adv-x="573" d="M205-471v2017h164V-471H205z"/><glyph unicode="}" horiz-adv-x="768" d="M82-328q145 0 198.5 46T334-113v432q0 213 190 285-190 72-190 285v350q0 123-53.5 169T82 1454v133h92q186 0 267-78.5t81-269.5V889q0-102 43-157.5T717 676V532q-109 0-152-55t-43-158v-432q0-190-81-269t-267-79H82v133z"/><glyph unicode="~" horiz-adv-x="1282" d="M123 502q20 41 41.5 67.5T224 630t93.5 55.5T451 707q37 0 93-19.5T661.5 635 775 582.5t83-19.5q63-2 110.5 30t71.5 62l25 31 94-74q-14-29-41.5-65.5T1052 477t-86-55.5T862 399q-57 0-115.5 20.5t-125 52.5-121 51.5T414 543q-59-2-106.5-29T238 457l-21-29z"/><glyph unicode="¡" horiz-adv-x="645" d="M184 981q0 68 39 106.5t96 38.5q59 0 95.5-37.5T451 983q0-66-39-104.5T313 840q-57 0-93 37.5T184 981zm21-1411l31 1024 174 10 30-1034H205z"/><glyph unicode="¢" horiz-adv-x="1044" d="M92 729q0 205 103.5 340T492 1237v197h153v-189q74-4 150.5-26.5T913 1176l39-19-10-266H809l-31 174q-68 20-174 20-154 0-225.5-77.5T307 758q0-369 307-369 39 0 77 7t72 18.5 61.5 26T868 467l33 25 80-113q-29-25-70-49.5t-87-46-93-37-86-19.5V0H492v231q-197 29-298.5 162T92 729z"/><glyph unicode="£" horiz-adv-x="1280" d="M123 0v123l113 31q72 18 92 75.5T348 371q0 43-3 120.5T334 686H123v139l201 23q-6 98-7 196 0 193 100.5 301.5T727 1454q51 0 107.5-5t106.5-11 92-13.5 65-15.5l49-16v-287h-133l-31 170q-61 8-122.5 11t-123.5 3q-215 0-215-205 0-66 2-124t6-111h340V686H541q12-184 12-260 0-39-6-76t-16.5-68.5-22.5-56-25-37.5l-22-24h520l43 215h133V0H123z"/><glyph unicode="¤" horiz-adv-x="1183" d="M102 225l160 160q-55 92-55 217 0 129 63 225L102 995l101 107 170-168q100 70 229 70 125 0 219-60l160 158 100-107-155-155q59-96 59-224 0-127-65-229l161-162-100-106-166 164q-102-68-229-68-129 0-224 61L203 119zm279 385q0-119 52-185.5T596 358t163 67 52 185q0 250-215 250T381 610z"/><glyph unicode="¥" horiz-adv-x="1320" d="M20 1311v112l512 11v-123l-139-41 273-553 301 553-158 41v112l491 11v-123l-126-37-306-537h252V594H199v143h254l-295 535zm179-994v144h921V317H768V164l174-41V0H379v123l174 41v153H199z"/><glyph unicode="¦" horiz-adv-x="614" d="M215 297h164v-840H215v840zm0 451v819h164V748H215z"/><glyph unicode="§" horiz-adv-x="1116" d="M154 727q0 199 147 301-55 82-55 191 0 86 29.5 155.5t82 118.5 124 76.5T637 1597q78-2 151.5-15t108.5-30l37-16-10-328H801l-49 215q-33 4-63 7.5t-58 3.5q-90 0-140.5-55.5T440 1251q0-70 41-121t102.5-97 133-91 133-98T952 723t41-160q0-201-147-301 57-88 57-190 0-84-28.5-154t-81-120-124-77.5T514-307q-78 2-152.5 15T254-262l-37 16 10 328h131l43-215q51-10 123-10 39 0 73 15t58.5 40 39 57.5T709 37q0 70-41 122t-102.5 98T431 347t-134 98.5-102 122T154 727zm194 45q0-47 13.5-84t42-69.5T475 553t105-70q59-39 100.5-65.5T745 371q53 59 54 147 0 47-14.5 84t-43 68.5T670 735t-103 70q-59 37-100 65.5T403 920q-55-55-55-148z"/><glyph unicode="¨" horiz-adv-x="1054" d="M205 1432q0 55 31.5 89.5T319 1556t81-34.5 30-87.5q0-55-32.5-89t-84.5-34q-49-1-80 32-29 33-28 89zm420 0q0 55 31.5 89.5T739 1556t81-34.5 30-87.5q0-55-33-89t-84-34q-49-1-80 32-29 33-28 89z"/><glyph unicode="©" horiz-adv-x="1679" d="M92 707q0 160 56.5 297T304 1241t236.5 156.5T840 1454q160 0 297-53t236.5-149.5T1530 1021t57-296q0-160-59.5-296T1365 192.5 1121.5 36 819-20q-323-1-526 202Q92 387 92 707zm164 10q0-131 41-239.5T412.5 291t180-121T829 127t240 43 187.5 122T1379 479.5t44 237.5q0 131-44 239.5T1255.5 1143 1067 1264t-238 43q-259 0-417-164-156-162-156-426zm215-12q0 96 26.5 173.5t76 133 120 86T854 1128q29 0 60.5-4t62.5-11 56.5-15 43.5-17l37-16-4-217H995l-28 139q-59 16-127 17-195 0-195-291 0-262 205-262 49 0 103.5 22.5T1038 518l31 23 55-95-39-36q-10-10-36.5-25.5t-61.5-31-74-26-73-10.5q-174 0-271.5 97.5T471 705z"/><glyph unicode="ª" horiz-adv-x="958" d="M133 877q0 227 332 227h110v102q0 49-33.5 79t-78.5 30q-82 0-160-21l-20-106H170l-10 205q195 61 317 61 262 0 262-235V793l117-29v-92l-223-10-33 106q-35-41-108.5-81T360 647q-111 0-169 58.5T133 877zm17-539v143h706V338H150zm143 551q0-106 106-107 43 0 87 22.5t67 47.5l22 22v119h-98q-96 0-140-25.5T293 889z"/><glyph unicode="«" horiz-adv-x="1105" d="M123 481v123l287 328 122-82-225-307 225-307-122-82zm440 0v123l297 328 123-82-235-307 235-307-123-82z"/><glyph unicode="¬" horiz-adv-x="1259" d="M123 563v164h1024V174H973v389H123z"/><glyph unicode="­" horiz-adv-x="768" d="M123 471v174h532V471H123z"/><glyph unicode="®" horiz-adv-x="1474" d="M113 922q0 133 47 246.5T291 1366t198.5 132 247.5 48 248-45 199-126 131-191.5 47-241.5q0-133-50-246.5T1173.5 498t-205-132.5T717 317q-268 0-436 168T113 922zm153 10q0-111 32-199t92.5-151.5 145.5-97T727 451t195.5 34.5 153 98 98 151.5 34.5 197q0 106-34.5 195.5t-98 152.5-152.5 98-196 35q-211 0-338-133-123-133-123-348zm174-328v82l82 21v475l-82 16v76l308 6q104 0 171.5-50t67.5-138q0-133-127-181 35-37 58-75l65-129 82-21v-82H889l-82 174q-16 35-28.5 56.5t-24 33T729 882t-35 3h-39V707l82-21v-82H440zm215 375h72q55 0 89 26.5t34 73.5q0 98-113 99h-82V979z"/><glyph unicode="¯" horiz-adv-x="716" d="M82 1352v153h553v-153H82z"/><glyph unicode="°" horiz-adv-x="839" d="M102 1194q0 70 24 128t65.5 98 100 62.5T420 1505q141 0 229-79.5t88-221.5q0-70-23.5-127T648 978t-101-64.5T418 891q-141 0-228.5 81T102 1194zm144 8q0-86 44-137t130-51 130 51 44 137q0 88-48 134t-126 46-126-46-48-134z"/><glyph unicode="±" horiz-adv-x="1259" d="M113 0v160h1034V0H113zm0 618v160h430v328h174V778h430V618H717V287H543v331H113z"/><glyph unicode="²" horiz-adv-x="798" d="M72 573v142q84 70 148.5 121T327 922.5t60.5 53 45 44.5 36.5 44 23 40q20 37 20 84 0 123-154 123-66 0-127-21l-14-123H94l-6 224q147 53 277 53 332 0 331-246 0-117-75.5-209T317 719h400V573H72z"/><glyph unicode="³" horiz-adv-x="774" d="M41 639l41 123q123-61 227-62 193 0 193 129 0 119-193 119h-84v125h94q172 0 173 131 0 106-144 107-84 0-139-19l-10-114H80l-8 227q164 39 297 39 135 0 216-57.5t81-151.5q0-176-181-213 78-8 137.5-61.5T682 831q0-133-97.5-200.5T326 563q-68 0-138.5 19.5T78 621z"/><glyph unicode="´" horiz-adv-x="860" d="M184 1413l379 297 103-154-400-256z"/><glyph unicode="¶" horiz-adv-x="1290" d="M123 1038q0 170 112.5 283T543 1434h262l352-11v-112l-174-41V-348H805v1618H643V-348H287v123l184 41v811q-150 16-249 129.5T123 1038z"/><glyph unicode="·" horiz-adv-x="532" d="M129 623q0 72 39 110.5T268 772q63 0 99-38t36-109q0-70-39-109t-102-39q-61 0-97 38t-36 108z"/><glyph unicode="¸" horiz-adv-x="892" d="M225-391l49 84q45-23 81-33t75-10q51 0 83 24.5t32 59.5q0 55-48 79.5T395-162h-18V0h123v-88q86-14 132-61.5T678-272q0-37-16.5-70t-45-56.5-65.5-37-76-13.5q-139 0-221 43z"/><glyph unicode="¹" horiz-adv-x="716" d="M31 1239l309 195h152V707h184V573H123v134h194v542l-215-133z"/><glyph unicode="º" horiz-adv-x="1013" d="M123 1034q0 94 29.5 172t82 133.5 125 85T520 1454q180 0 275.5-101.5T891 1061q0-94-27.5-171t-79-131-124-84T500 645q-178 0-277.5 98T123 1034zm20-696v143h727V338H143zm154 711q0-129 58.5-195T512 788t151.5 66 53.5 195-54.5 195.5T510 1311q-94 0-153.5-66.5T297 1049z"/><glyph unicode="»" horiz-adv-x="1105" d="M123 236l235 307-235 307 123 82 297-328V481L246 154zm450 0l226 307-226 307 123 82 287-328V481L696 154z"/><glyph unicode="¼" horiz-adv-x="1986" d="M82 1239l309 195h152V707h184V573H174v134h194v542l-215-133zM461 0l830 1434h184L646 0H461zm664 310l415 573 201-20V322h144V189h-144V2h-174v187h-430zm178 12h264v367z"/><glyph unicode="½" horiz-adv-x="1945" d="M82 1239l309 195h152V707h184V573H174v134h194v542l-215-133zM461 0l830 1434h184L646 0H461zm727 2v142q84 70 148.5 121t106.5 86.5 60.5 53 45 44.5 36.5 44 23 40q20 37 20 84 0 123-154 123-66 0-127-21l-14-123h-123l-6 224q147 53 277 53 332 0 331-246 0-117-75.5-209T1433 148h400V2h-645z"/><glyph unicode="¾" horiz-adv-x="1972" d="M72 639l41 123q123-61 227-62 193 0 193 129 0 119-193 119h-84v125h94q172 0 173 131 0 106-144 107-84 0-139-19l-10-114H111l-8 227q164 39 297 39 135 0 216-57.5t81-151.5q0-176-181-213 78-8 137.5-61.5T713 831q0-133-97.5-200.5T357 563q-68 0-138.5 19.5T109 621zM446 0l830 1434h184L631 0H446zm664 310l415 573 201-20V322h144V189h-144V2h-174v187h-430zm178 12h264v367z"/><glyph unicode="¿" horiz-adv-x="974" d="M133-102q0 51 16.5 101t43 95 60.5 84 71 68q188 152 188 254l-4 127 184 12q18-139 19-195 0-43-21.5-80.5T634 290t-76-71-83-69Q348 39 348-82q0-164 215-164 51-2 97.5 4t87.5 17l30 6 33-154q-137-47-258-47-90 0-166 16.5T254-349t-89 98.5T133-102zM451 981q0 68 39 106.5t96 38.5q59 0 95-37.5T717 983q0-66-39-104.5T580 840q-57 0-93 37.5T451 981z"/><glyph unicode="À" horiz-adv-x="1484" d="M10 0v123l168 39 467 1261 205 11 455-1272 170-39V0H881v123l190 39-78 227H461l-80-227 192-39V0H10zm492 1761l102 154 379-297-82-113zm14-1208h422l-207 616z"/><glyph unicode="Á" horiz-adv-x="1484" d="M10 0v123l168 39 467 1261 205 11 455-1272 170-39V0H881v123l190 39-78 227H461l-80-227 192-39V0H10zm506 553h422l-207 616zm117 1065l379 297 103-154-400-256z"/><glyph unicode="Â" horiz-adv-x="1484" d="M10 0v123l168 39 467 1261 205 11 455-1272 170-39V0H881v123l190 39-78 227H461l-80-227 192-39V0H10zm369 1628l297 246 123 10 297-256-82-92-272 191-281-191zM516 553h422l-207 616z"/><glyph unicode="Ã" horiz-adv-x="1484" d="M10 0v123l168 39 467 1261 205 11 455-1272 170-39V0H881v123l190 39-78 227H461l-80-227 192-39V0H10zm414 1720q37 86 98 139.5t131 53.5q41 0 81-12.5t91-33 92-35 68-14.5q49 0 81.5 21.5t47.5 44.5l16 20 72-71q-8-25-28.5-55.5T1124 1713t-63.5-49.5T983 1648q-35 0-83 13.5t-97.5 33-88.5 32-65 12.5q-47-2-84-23.5t-53-44.5l-17-23zm92-1167h422l-207 616z"/><glyph unicode="Ä" horiz-adv-x="1484" d="M10 0v123l168 39 467 1261 205 11 455-1272 170-39V0H881v123l190 39-78 227H461l-80-227 192-39V0H10zm420 1688q0 55 31.5 89.5T544 1812t81-34.5 30-87.5q0-55-32.5-89t-84.5-34q-49-1-80 32-29 33-28 89zm86-1135h422l-207 616zm334 1135q0 55 31.5 89.5T964 1812t81-34.5 30-87.5q0-55-33-89t-84-34q-49-1-80 32-29 33-28 89z"/><glyph unicode="Å" horiz-adv-x="1484" d="M10 0v123l168 39 467 1261q-133 58-133 205 0 104 71.5 170t164.5 66q94 0 164.5-60.5T983 1655q0-168-131-228l453-1265 170-39V0H881v123l190 39-78 227H461l-80-227 192-39V0H10zm506 553h422l-207 616zm119 1079q0-127 113-127 49 0 80.5 35t31.5 94q0 127-112 127-49 0-81-35t-32-94z"/><glyph unicode="Æ" horiz-adv-x="1964" d="M10 0v123l183 41 567 1106-174 41v112l258 11h977v-349h-133l-52 185h-438V829h469V666h-469V164h469l41 205h133V0H799v123l184 41v256H532L403 158l160-35V0H10zm604 584h369v686h-31z"/><glyph unicode="Ç" horiz-adv-x="1320" d="M82 696q0 172 48 311.5t138 239T484 1400t284 54q47 0 103.5-7t110.5-19.5 102.5-25.5 78.5-26l66-24-10-346h-154l-55 233q-111 41-262 41-209 0-320-149.5T317 705q0-274 120-407.5T758 164q45 0 97 12t101.5 29.5 90 39T1114 287l53 41 82-133q-37-37-84-71t-101-62.5-113.5-48T829-14v-76q174-31 175-182 0-41-18.5-74T936-401.5t-68-36-73-13.5q-66-2-122.5 12.5T569-401l-30 14 53 86q98-47 153-47 115 0 115 82 0 47-44 74.5T696-164v146Q401-6 241.5 173T82 696z"/><glyph unicode="È" horiz-adv-x="1280" d="M123 0v123l174 41v1106l-174 41v112l389 11h625v-349h-133l-52 185H512V829h471V666H512V164h471l41 205h133V0H123zm234 1761l102 154 379-297-82-113z"/><glyph unicode="É" horiz-adv-x="1280" d="M123 0v123l174 41v1106l-174 41v112l389 11h625v-349h-133l-52 185H512V829h471V666H512V164h471l41 205h133V0H123zm368 1618l379 297 103-154-400-256z"/><glyph unicode="Ê" horiz-adv-x="1280" d="M123 0v123l174 41v1106l-174 41v112l389 11h625v-349h-133l-52 185H512V829h471V666H512V164h471l41 205h133V0H123zm174 1628l297 246 123 10 297-256-82-92-272 191-281-191z"/><glyph unicode="Ë" horiz-adv-x="1280" d="M123 0v123l174 41v1106l-174 41v112l389 11h625v-349h-133l-52 185H512V829h471V666H512V164h471l41 205h133V0H123zm205 1688q0 55 31.5 89.5T442 1812t81-34.5 30-87.5q0-55-32.5-89t-84.5-34q-49-1-80 32-29 33-28 89zm420 0q0 55 31.5 89.5T862 1812t81-34.5 30-87.5q0-55-33-89t-84-34q-49-1-80 32-29 33-28 89z"/><glyph unicode="Ì" horiz-adv-x="727" d="M41 1761l102 154 379-297-82-113zM82 0v123l174 41v1106l-174 41v112l563 11v-123l-174-41V164l174-41V0H82z"/><glyph unicode="Í" horiz-adv-x="727" d="M82 0v123l174 41v1106l-174 41v112l563 11v-123l-174-41V164l174-41V0H82zm112 1618l379 297 103-154-400-256z"/><glyph unicode="Î" horiz-adv-x="727" d="M18 1628l283 246 123 10 283-256-82-92-258 190-267-190zM86 0v123l174 41v1106l-174 41v112l563 11v-123l-174-41V164l174-41V0H86z"/><glyph unicode="Ï" horiz-adv-x="727" d="M43 1688q0 55 31.5 89.5T157 1812t81-34.5 30-87.5q0-55-32.5-89t-84.5-34q-49-1-80 32-29 33-28 89zM82 0v123l174 41v1106l-174 41v112l563 11v-123l-174-41V164l174-41V0H82zm381 1688q0 55 31.5 89.5T577 1812t81-34.5 30-87.5q0-55-33-89t-84-34q-49-1-80 32-29 33-28 89z"/><glyph unicode="Ð" horiz-adv-x="1501" d="M123 0v123l174 41v512H123v162h174v432l-174 41v112l389 11h262q152 0 271.5-46.5T1248 1252t127-219 44-298-48-303-136-231.5T1022 52 743 0H123zm387 164h244q203 0 316.5 139T1184 723q0 283-110.5 415T764 1270H510V838h319V676H510V164z"/><glyph unicode="Ñ" horiz-adv-x="1617" d="M82 0v123l174 41v1106l-174 41v112l430 11 676-1145v981l-174 41v112l532 11v-123l-174-41V0h-256L440 1128V164l195-41V0H82zm330 1640q37 86 98 139.5t131 53.5q41 0 81-12.5t91-33 92-35 68-14.5q49 0 81.5 21.5t47.5 44.5l16 20 72-71q-8-25-28.5-55.5T1112 1633t-63.5-49.5T971 1568q-35 0-83 13.5t-97.5 33-88.5 32-65 12.5q-47-2-84-23.5t-53-44.5l-17-23z"/><glyph unicode="Ò" horiz-adv-x="1546" d="M123 700q0 172 46 311.5t134 239T513 1402t271 52q150 0 268.5-50t201.5-144.5 126-227.5 43-299-49-304-138-237.5T1022 36 745-20q-301 0-461.5 186T123 700zm235 17q0-563 400-563 205 0 317.5 143T1188 727q0 553-410 553-420 0-420-563zm124 1044l102 154 379-297-82-113z"/><glyph unicode="Ó" horiz-adv-x="1546" d="M123 700q0 172 46 311.5t134 239T513 1402t271 52q150 0 268.5-50t201.5-144.5 126-227.5 43-299-49-304-138-237.5T1022 36 745-20q-301 0-461.5 186T123 700zm235 17q0-563 400-563 205 0 317.5 143T1188 727q0 553-410 553-420 0-420-563zm205 901l379 297 103-154-400-256z"/><glyph unicode="Ô" horiz-adv-x="1546" d="M123 700q0 172 46 311.5t134 239T513 1402t271 52q150 0 268.5-50t201.5-144.5 126-227.5 43-299-49-304-138-237.5T1022 36 745-20q-301 0-461.5 186T123 700zm235 17q0-563 400-563 205 0 317.5 143T1188 727q0 553-410 553-420 0-420-563zm47 911l297 246 123 10 297-256-82-92-272 191-281-191z"/><glyph unicode="Õ" horiz-adv-x="1546" d="M123 700q0 172 46 311.5t134 239T513 1402t271 52q150 0 268.5-50t201.5-144.5 126-227.5 43-299-49-304-138-237.5T1022 36 745-20q-301 0-461.5 186T123 700zm235 17q0-563 400-563 205 0 317.5 143T1188 727q0 553-410 553-420 0-420-563zm27 1003q37 86 98 139.5t131 53.5q41 0 81-12.5t91-33 92-35 68-14.5q49 0 81.5 21.5t47.5 44.5l16 20 72-71q-8-25-28.5-55.5T1085 1713t-63.5-49.5T944 1648q-35 0-83 13.5t-97.5 33-88.5 32-65 12.5q-47-2-84-23.5t-53-44.5l-17-23z"/><glyph unicode="Ö" horiz-adv-x="1546" d="M123 700q0 172 46 311.5t134 239T513 1402t271 52q150 0 268.5-50t201.5-144.5 126-227.5 43-299-49-304-138-237.5T1022 36 745-20q-301 0-461.5 186T123 700zm235 17q0-563 400-563 205 0 317.5 143T1188 727q0 553-410 553-420 0-420-563zm93 971q0 55 31.5 89.5T565 1812t81-34.5 30-87.5q0-55-32.5-89t-84.5-34q-49-1-80 32-29 33-28 89zm420 0q0 55 31.5 89.5T985 1812t81-34.5 30-87.5q0-55-33-89t-84-34q-49-1-80 32-29 33-28 89z"/><glyph unicode="×" horiz-adv-x="1228" d="M123 166l377 377-377 377 115 114 376-377 377 377 115-114-377-377 377-377L991 51 614 428 238 51z"/><glyph unicode="Ø" horiz-adv-x="1546" d="M123 707q0 170 47 308t134 235.5T514 1401t274 53q164 0 299-65l132 219 133-72-140-231q211-193 211-551 0-176-49-318.5t-138-244T1022 35 748-20q-172 0-297 61L297-215l-133 72 162 268Q123 309 123 707zm235 10q0-252 84-398l547 908q-90 53-211 53-420 0-420-563zm193-510q84-53 207-53 207 0 318.5 143T1188 709q0 270-88 409z"/><glyph unicode="Ù" horiz-adv-x="1617" d="M82 1311v112l584 11v-123l-195-41V553q0-225 78-312t264-87 260 95 74 335v686l-195 41v112l584 11v-123l-174-41V584q0-301-127-452.5T807-20 381 120 256 553v717zm400 450l102 154 379-297-82-113z"/><glyph unicode="Ú" horiz-adv-x="1617" d="M82 1311v112l584 11v-123l-195-41V553q0-225 78-312t264-87 260 95 74 335v686l-195 41v112l584 11v-123l-174-41V584q0-301-127-452.5T807-20 381 120 256 553v717zm571 307l379 297 103-154-400-256z"/><glyph unicode="Û" horiz-adv-x="1617" d="M82 1311v112l584 11v-123l-195-41V553q0-225 78-312t264-87 260 95 74 335v686l-195 41v112l584 11v-123l-174-41V584q0-301-127-452.5T807-20 381 120 256 553v717zm366 317l297 246 123 10 297-256-82-92-272 191-281-191z"/><glyph unicode="Ü" horiz-adv-x="1617" d="M82 1311v112l584 11v-123l-195-41V553q0-225 78-312t264-87 260 95 74 335v686l-195 41v112l584 11v-123l-174-41V584q0-301-127-452.5T807-20 381 120 256 553v717zm389 377q0 55 31.5 89.5T585 1812t81-34.5 30-87.5q0-55-32.5-89t-84.5-34q-49-1-80 32-29 33-28 89zm420 0q0 55 31.5 89.5t82.5 34.5 81-34.5 30-87.5q0-55-33-89t-84-34q-49-1-80 32-29 33-28 89z"/><glyph unicode="Ý" horiz-adv-x="1320" d="M20 1311v112l512 11v-123l-139-41 273-574 301 574-158 41v112l491 11v-123l-126-37-406-739V164l174-41V0H379v123l174 41v366l-395 742zm533 307l379 297 103-154-400-256z"/><glyph unicode="Þ" horiz-adv-x="1239" d="M82 0v123l174 41v1106l-174 41v112l563 11v-123l-174-41v-113h215q221 0 346-100.5T1157 778q0-223-140-342T614 317H471V164l174-41V0H82zm389 481h143q162 0 250 68.5T952 737q0 121-73.5 188.5T676 993H471V481z"/><glyph unicode="ß" horiz-adv-x="1558" d="M143 922v133l226 20v113q0 193 118.5 301T817 1597q104 0 191.5-19t150-58 97-99.5T1290 1280t-42-146.5-93-105.5q-133-102-133-188 0-53 35-89t88-65 113.5-54.5T1372 567t88-95 35-142q0-76-36-140.5T1365 79 1230 6.5 1071-20q-78 2-143.5 8T807 12l-37 13v294h131l31-165q41-20 119-21 102 0 165.5 41t63.5 115q0 57-35 93t-87 63.5-113.5 53T931 561t-87 91.5T809 791q0 63 16.5 108t43 79 57 59.5T987 1085q98 74 98 175 0 49-20.5 84.5t-56 57-83.5 32-104 10.5q-111 0-179.5-58.5T573 1229V0H195v113l174 51v758H143z"/><glyph unicode="à" d="M92 287q0 317 471 317h164v164q0 184-195 184-111 0-182-22l-24-8-29-154H164l-10 256q221 82 405 82 180 0 276.5-72.5T932 788V164l164-41V10L778 0l-43 143Q571-21 412-20q-160 0-240 79.5T92 287zm184 1200l103 154 399-318-72-102zm25-1180q0-80 38-122t110-42q35 0 70.5 12.5t69.5 31 60.5 40T692 266l35 41v164H584q-154 0-218.5-40T301 307z"/><glyph unicode="á" d="M92 287q0 317 471 317h164v164q0 184-195 184-111 0-182-22l-24-8-29-154H164l-10 256q221 82 405 82 180 0 276.5-72.5T932 788V164l164-41V10L778 0l-43 143Q571-21 412-20q-160 0-240 79.5T92 287zm209 20q0-80 38-122t110-42q35 0 70.5 12.5t69.5 31 60.5 40T692 266l35 41v164H584q-154 0-218.5-40T301 307zm24 1016l400 318 102-154-430-266z"/><glyph unicode="â" d="M92 287q0 317 471 317h164v164q0 184-195 184-111 0-182-22l-24-8-29-154H164l-10 256q221 82 405 82 180 0 276.5-72.5T932 788V164l164-41V10L778 0l-43 143Q571-21 412-20q-160 0-240 79.5T92 287zm72 1038l307 276 123 10 307-286-82-93-282 222-291-222zM301 307q0-80 38-122t110-42q35 0 70.5 12.5t69.5 31 60.5 40T692 266l35 41v164H584q-154 0-218.5-40T301 307z"/><glyph unicode="ã" d="M92 287q0 317 471 317h164v164q0 184-195 184-111 0-182-22l-24-8-29-154H164l-10 256q221 82 405 82 180 0 276.5-72.5T932 788V164l164-41V10L778 0l-43 143Q571-21 412-20q-160 0-240 79.5T92 287zm58 1085q37 86 98 139.5t131 53.5q41 0 81-12.5t91-33 92-35 68-14.5q49 0 81.5 21.5T840 1536l16 20 72-71q-8-25-28.5-55.5T850 1365t-63.5-49.5T709 1300q-35 0-83 13.5t-97.5 33-88.5 32-65 12.5q-47-2-84-23.5t-53-44.5l-17-23zM301 307q0-80 38-122t110-42q35 0 70.5 12.5t69.5 31 60.5 40T692 266l35 41v164H584q-154 0-218.5-40T301 307z"/><glyph unicode="ä" d="M92 287q0 317 471 317h164v164q0 184-195 184-111 0-182-22l-24-8-29-154H164l-10 256q221 82 405 82 180 0 276.5-72.5T932 788V164l164-41V10L778 0l-43 143Q571-21 412-20q-160 0-240 79.5T92 287zm123 1145q0 55 31.5 89.5T329 1556t81-34.5 30-87.5q0-55-32.5-89t-84.5-34q-49-1-80 32-29 33-28 89zm86-1125q0-80 38-122t110-42q35 0 70.5 12.5t69.5 31 60.5 40T692 266l35 41v164H584q-154 0-218.5-40T301 307zm334 1125q0 55 31.5 89.5T749 1556t81-34.5 30-87.5q0-55-33-89t-84-34q-49-1-80 32-29 33-28 89z"/><glyph unicode="å" d="M92 287q0 317 471 317h164v164q0 184-195 184-111 0-182-22l-24-8-29-154H164l-10 256q221 82 405 82 180 0 276.5-72.5T932 788V164l164-41V10L778 0l-43 143Q571-21 412-20q-160 0-240 79.5T92 287zm209 20q0-80 38-122t110-42q35 0 70.5 12.5t69.5 31 60.5 40T692 266l35 41v164H584q-154 0-218.5-40T301 307zm41 1137q0 53 20.5 97t54 75 76.5 47 86 16 85-15 75-45 53.5-72 20.5-93q0-55-21.5-98t-55.5-74-77-47-86-16q-90 0-162 59-70 61-69 166zm123 4q0-127 112-127 49 0 81 35t32 94q0 127-113 127-49 0-80.5-35t-31.5-94z"/><glyph unicode="æ" horiz-adv-x="1710" d="M92 287q0 317 471 317h164v164q0 184-195 184-111 0-182-22l-24-8-29-154H164l-10 256q221 82 399 82 246 0 319-143 131 143 336 143 430 0 430-481l-10-109-706-4q0-168 80.5-268.5T1219 143q45 0 90 8.5t85 20.5 72.5 27.5T1522 229l41 27 71-106q-70-55-128-84T1369 8.5 1198-20q-291 0-403 217-14-18-48-55.5t-85.5-73-117-62T399-20q-147 0-227 79.5T92 287zm205 20q0-90 46-127t101-37q51 0 96.5 18.5t79 44 57 51.5 36.5 42l14 18v154H584q-154 0-220.5-39T297 307zm633 359h491q0 125-53 202.5T1196 946q-117 0-186.5-78.5T930 666z"/><glyph unicode="ç" horiz-adv-x="1044" d="M82 543q0 123 38 226t107.5 178 168 117 218.5 42q41 0 84-6t84-14.5 76-19.5 60-22l45-20-11-276H819l-31 174q-80 20-184 20-147 0-227-94t-80-293 84-305.5T614 143q43 0 85 8.5t80 21.5 69 29.5 49 33.5l35 30 72-123q-29-25-71-51t-90-49-97.5-39T655-16v-74q82-16 130.5-63.5T834-274q0-37-17.5-70T770-399.5t-65.5-36T631-449q-135 0-221 43l-29 15 49 84q92-43 154-43 117 0 116 84 0 47-46 75.5T532-162v146Q309 0 195.5 145.5T82 543z"/><glyph unicode="è" horiz-adv-x="1085" d="M82 526q0 127 37 233.5T222.5 943 381 1063t203 43q430 0 430-481l-10-109-707-4q0-168 81-268.5T594 143q45 0 90 8.5t85 20.5 72.5 27.5T897 229l41 27 72-106q-70-55-128.5-87t-137-57.5T573-20q-242 0-366.5 146T82 526zm194 961l103 154 399-318-72-102zm29-821h492q0 125-53.5 202.5T571 946q-117 0-186.5-78.5T305 666z"/><glyph unicode="é" horiz-adv-x="1085" d="M82 526q0 127 37 233.5T222.5 943 381 1063t203 43q430 0 430-481l-10-109-707-4q0-168 81-268.5T594 143q45 0 90 8.5t85 20.5 72.5 27.5T897 229l41 27 72-106q-70-55-128.5-87t-137-57.5T573-20q-242 0-366.5 146T82 526zm223 140h492q0 125-53.5 202.5T571 946q-117 0-186.5-78.5T305 666zm53 657l400 318 102-154-430-266z"/><glyph unicode="ê" horiz-adv-x="1085" d="M82 526q0 127 37 233.5T222.5 943 381 1063t203 43q430 0 430-481l-10-109-707-4q0-168 81-268.5T594 143q45 0 90 8.5t85 20.5 72.5 27.5T897 229l41 27 72-106q-70-55-128.5-87t-137-57.5T573-20q-242 0-366.5 146T82 526zm102 797l307 276 123 10 307-286-82-93-282 222-291-222zm121-657h492q0 125-53.5 202.5T571 946q-117 0-186.5-78.5T305 666z"/><glyph unicode="ë" horiz-adv-x="1085" d="M82 526q0 127 37 233.5T222.5 943 381 1063t203 43q430 0 430-481l-10-109-707-4q0-168 81-268.5T594 143q45 0 90 8.5t85 20.5 72.5 27.5T897 229l41 27 72-106q-70-55-128.5-87t-137-57.5T573-20q-242 0-366.5 146T82 526zm154 906q0 55 31.5 89.5T350 1556t81-34.5 30-87.5q0-55-32.5-89t-84.5-34q-49-1-80 32-29 33-28 89zm69-766h492q0 125-53.5 202.5T571 946q-117 0-186.5-78.5T305 666zm351 766q0 55 31.5 89.5T770 1556t81-34.5 30-87.5q0-55-33-89t-84-34q-49-1-80 32-29 33-28 89z"/><glyph unicode="ì" horiz-adv-x="686" d="M33 1487l103 154 399-318-72-102zM82 0v113l174 51v758L82 963v112l379 10V164l153-51V0H82z"/><glyph unicode="í" horiz-adv-x="686" d="M82 0v113l174 51v758L82 963v112l379 10V164l153-51V0H82zm51 1341l400 318 102-154-430-266z"/><glyph unicode="î" horiz-adv-x="686" d="M-10 1321l286 276 123 11 287-287-82-92-262 221-270-221zM82 0v113l174 51v758L82 963v112l379 10V164l153-51V0H82z"/><glyph unicode="ï" horiz-adv-x="686" d="M31 1432q0 55 31.5 89.5T145 1556t81-34.5 30-87.5q0-55-33-89t-84-34q-49-1-80 32-29 33-28 89zM82 0v113l174 51v758L82 963v112l379 10V164l153-51V0H82zm348 1432q0 55 32 89.5t83 34.5 80.5-34.5T655 1434q0-55-32.5-89t-83.5-34q-49-1-80 32-29 33-29 89z"/><glyph unicode="ð" horiz-adv-x="1218" d="M92 506q0 129 35 230.5t100.5 172T385 1017t209 38q141 0 252-86-74 205-230 331l-268-143-82 113 221 119q-92 51-200 86l61 129q166-41 303-125l230 125 84-115-193-105q324-293 324-841 0-127-37-230.5T954.5 135t-162-114.5T582-20q-229 0-359.5 134T92 506zm215 6q0-174 71-271.5T596 143t216 94.5T881 522q-1 369-277 369-297 0-297-379z"/><glyph unicode="ñ" horiz-adv-x="1361" d="M82 0v113l174 51v758L82 963v112l338 10 18-145q20 16 57 45t87.5 55.5 111 46T819 1106q166 0 247-97.5t81-271.5V164l153-51V0H809v113l133 51v553q0 111-43 163t-131 52q-43 0-85-11.5t-78-30-63.5-40T496 809l-35-41V164l133-51V0H82zm209 1372q37 86 98 139.5t131 53.5q41 0 81-12.5t91-33 92-35 68-14.5q49 0 81.5 21.5T981 1536l16 20 72-71q-8-25-28.5-55.5T991 1365t-63.5-49.5T850 1300q-35 0-83 13.5t-97.5 33-88.5 32-65 12.5q-47-2-84-23.5t-53-44.5l-17-23z"/><glyph unicode="ò" horiz-adv-x="1167" d="M82 526q0 131 38 238.5T227.5 948 392 1065t210 41q229 0 356-145.5T1085 557q0-127-36.5-232.5t-103-182T783.5 23 571-20q-233 0-361 139T82 526zm215 17q0-399 287-400 150 0 218 102.5T870 553q0 389-276 389-297 0-297-399zm0 944l103 154 399-318-72-102z"/><glyph unicode="ó" horiz-adv-x="1167" d="M82 526q0 131 38 238.5T227.5 948 392 1065t210 41q229 0 356-145.5T1085 557q0-127-36.5-232.5t-103-182T783.5 23 571-20q-233 0-361 139T82 526zm215 17q0-399 287-400 150 0 218 102.5T870 553q0 389-276 389-297 0-297-399zm69 780l400 318 102-154-430-266z"/><glyph unicode="ô" horiz-adv-x="1167" d="M82 526q0 131 38 238.5T227.5 948 392 1065t210 41q229 0 356-145.5T1085 557q0-127-36.5-232.5t-103-182T783.5 23 571-20q-233 0-361 139T82 526zm143 797l307 276 123 10 307-286-82-93-282 222-291-222zm72-780q0-399 287-400 150 0 218 102.5T870 553q0 389-276 389-297 0-297-399z"/><glyph unicode="õ" horiz-adv-x="1167" d="M82 526q0 131 38 238.5T227.5 948 392 1065t210 41q229 0 356-145.5T1085 557q0-127-36.5-232.5t-103-182T783.5 23 571-20q-233 0-361 139T82 526zm113 846q37 86 98 139.5t131 53.5q41 0 81-12.5t91-33 92-35 68-14.5q49 0 81.5 21.5T885 1536l16 20 72-71q-8-25-28.5-55.5T895 1365t-63.5-49.5T754 1300q-35 0-83 13.5t-97.5 33-88.5 32-65 12.5q-47-2-84-23.5t-53-44.5l-17-23zm102-829q0-399 287-400 150 0 218 102.5T870 553q0 389-276 389-297 0-297-399z"/><glyph unicode="ö" horiz-adv-x="1167" d="M82 526q0 131 38 238.5T227.5 948 392 1065t210 41q229 0 356-145.5T1085 557q0-127-36.5-232.5t-103-182T783.5 23 571-20q-233 0-361 139T82 526zm174 906q0 55 31.5 89.5T370 1556t81-34.5 30-87.5q0-55-32.5-89t-84.5-34q-49-1-80 32-29 33-28 89zm41-889q0-399 287-400 150 0 218 102.5T870 553q0 389-276 389-297 0-297-399zm379 889q0 55 31.5 89.5T790 1556t81-34.5 30-87.5q0-55-33-89t-84-34q-49-1-80 32-29 33-28 89z"/><glyph unicode="÷" horiz-adv-x="1269" d="M102 461v164h1065V461H102zm400-340q0 68 38 106.5t97 38.5 95-38 36-105q0-66-38-104.5T633-20t-95 37.5T502 121zm0 840q0 68 38 106.5t97 38.5 95-38 36-105q0-66-38-105t-97-39-95 38-36 104z"/><glyph unicode="ø" horiz-adv-x="1187" d="M92 514q0 139 39 248.5T238.5 949t165 117 210.5 40q111 0 209-41l129 215 123-72-133-223q154-145 154-414 0-133-37-242.5T955.5 141t-161-119.5T584-20q-121 0-219 38L225-215l-123 72L244 94Q92 235 92 514zm215 29q0-164 47-262l379 632q-61 29-129 29-297 0-297-399zm150-369q57-31 137-31 287 0 287 385 0 178-47 277z"/><glyph unicode="ù" horiz-adv-x="1331" d="M41 963v112l379 10V367q0-109 43-161t131-52 161.5 41T864 274l37 41v607l-174 41v112l379 10V164l174-41V10L942 0l-20 143Q836 67 727 23.5T543-20q-164 0-246 96t-82 270v576zm317 524l103 154 399-318-72-102z"/><glyph unicode="ú" horiz-adv-x="1331" d="M41 963v112l379 10V367q0-109 43-161t131-52 161.5 41T864 274l37 41v607l-174 41v112l379 10V164l174-41V10L942 0l-20 143Q836 67 727 23.5T543-20q-164 0-246 96t-82 270v576zm399 360l400 318 102-154-430-266z"/><glyph unicode="û" horiz-adv-x="1331" d="M41 963v112l379 10V367q0-109 43-161t131-52 161.5 41T864 274l37 41v607l-174 41v112l379 10V164l174-41V10L942 0l-20 143Q836 67 727 23.5T543-20q-164 0-246 96t-82 270v576zm256 360l307 276 123 10 307-286-82-93-282 222-291-222z"/><glyph unicode="ü" horiz-adv-x="1331" d="M41 963v112l379 10V367q0-109 43-161t131-52 161.5 41T864 274l37 41v607l-174 41v112l379 10V164l174-41V10L942 0l-20 143Q836 67 727 23.5T543-20q-164 0-246 96t-82 270v576zm277 469q0 55 31.5 89.5T432 1556t81-34.5 30-87.5q0-55-32.5-89t-84.5-34q-49-1-80 32-29 33-28 89zm420 0q0 55 31.5 89.5T852 1556t81-34.5 30-87.5q0-55-33-89t-84-34q-49-1-80 32-29 33-28 89z"/><glyph unicode="ý" horiz-adv-x="1177" d="M20 963v112l482 10V963l-144-21 246-717 225 707-143 31v112l485 10V963l-133-21-290-811Q646-137 596-225 442-489 195-492L63-481l19 143h102q100 0 175 84T510-4L143 932zm471 360l400 318 102-154-430-266z"/><glyph unicode="þ" horiz-adv-x="1259" d="M51 1454v113l379 10V983q23 23 58.5 44.5T565 1066t83 28.5 79 11.5q217 0 328.5-142.5T1167 559q0-127-33.5-233.5t-103-183T857.5 23 614-20q-45 0-85 4T455 0l-25 8v-325l215-41v-113H61v113l164 41v1730zM430 184q63-41 215-41 307 0 307 410 0 180-65.5 284.5T686 942q-78 0-146.5-35.5T430 799V184z"/><glyph unicode="ÿ" horiz-adv-x="1177" d="M20 963v112l482 10V963l-144-21 246-717 225 707-143 31v112l485 10V963l-133-21-290-811Q646-137 596-225 442-489 195-492L63-481l19 143h102q100 0 175 84T510-4L143 932zm257 469q0 55 31.5 89.5T391 1556t81-34.5 30-87.5q0-55-32.5-89t-84.5-34q-49-1-80 32-29 33-28 89zm420 0q0 55 31.5 89.5T811 1556t81-34.5 30-87.5q0-55-33-89t-84-34q-49-1-80 32-29 33-28 89z"/><glyph unicode="Œ" horiz-adv-x="1925" d="M123 700q0 172 47 309.5T303 1244t208.5 148.5T788 1444l308-10 676 10v-359h-134l-51 185h-440V829h471V666h-471V164h471l41 205h133V0h-717L748-10q-303 0-464 182T123 700zm235 17q0-563 400-563l174 10v1106q-47 4-85 7t-69 3q-420 0-420-563z"/><glyph unicode="œ" horiz-adv-x="1873" d="M82 526q0 131 38 238.5T227.5 948t168 117 218.5 41q244 0 377-213 129 213 381 213 430 0 430-481l-10-109-707-4q0-168 81-268.5T1382 143q45 0 90.5 8.5t85 20.5 72.5 27.5 56 29.5l40 27 72-106q-70-57-128-86T1533 7.5 1362-20q-268 0-385 210Q840-21 573-20q-236 0-363.5 139T82 526zm215 17q0-399 287-400 297 0 297 410 0 180-70 284.5T594 942q-297 0-297-399zm797 123h491q0 125-53 202.5T1360 946q-117 0-186.5-78.5T1094 666z"/><glyph unicode="Ÿ" horiz-adv-x="1320" d="M20 1311v112l512 11v-123l-139-41 273-574 301 574-158 41v112l491 11v-123l-126-37-406-739V164l174-41V0H379v123l174 41v366l-395 742zm308 377q0 55 31.5 89.5T442 1812t81-34.5 30-87.5q0-55-32.5-89t-84.5-34q-49-1-80 32-29 33-28 89zm420 0q0 55 31.5 89.5T862 1812t81-34.5 30-87.5q0-55-33-89t-84-34q-49-1-80 32-29 33-28 89z"/><glyph unicode="ˆ" horiz-adv-x="1064" d="M174 1423l297 246 123 10 297-256-82-92-272 191-281-191z"/><glyph unicode="˜" d="M195 1372q37 86 98 139.5t131 53.5q41 0 81-12.5t91-33 92-35 68-14.5q49 0 81.5 21.5T885 1536l16 20 72-71q-8-25-28.5-55.5T895 1365t-63.5-49.5T754 1300q-35 0-83 13.5t-97.5 33-88.5 32-65 12.5q-47-2-84-23.5t-53-44.5l-17-23z"/><glyph horiz-adv-x="957"/><glyph horiz-adv-x="1915"/><glyph horiz-adv-x="957"/><glyph horiz-adv-x="1915"/><glyph horiz-adv-x="638"/><glyph horiz-adv-x="478"/><glyph horiz-adv-x="319"/><glyph horiz-adv-x="319"/><glyph horiz-adv-x="239"/><glyph horiz-adv-x="383"/><glyph horiz-adv-x="106"/><glyph unicode="‐" horiz-adv-x="768" d="M123 471v174h532V471H123z"/><glyph unicode="‑" horiz-adv-x="768" d="M123 471v174h532V471H123z"/><glyph unicode="‒" horiz-adv-x="768" d="M123 471v174h532V471H123z"/><glyph unicode="–" horiz-adv-x="1024" d="M0 584v164h1024V584H0z"/><glyph unicode="—" horiz-adv-x="1986" d="M0 584v164h1987V584H0z"/><glyph unicode="‘" horiz-adv-x="573" d="M133 1167q0 180 236 430l92-77q-109-145-109-217 0-12 7.5-27.5t17.5-37 16-47.5 6-48q0-49-37-88t-96-39q-133 0-133 151z"/><glyph unicode="’" horiz-adv-x="573" d="M113 1094q109 145 108 217 0 12-7 26.5t-16.5 37-16.5 47-7 48.5q0 49 37 88t96 39q133 0 133-151 0-180-235-430z"/><glyph unicode="‚" horiz-adv-x="573" d="M113-279Q222-134 221-61q0 6-6 23.5t-17.5 40-17.5 47-6 48.5q0 49 37 88t96 39q133 0 133-151 0-180-235-430z"/><glyph unicode="“" horiz-adv-x="972" d="M133 1167q0 180 236 430l92-77q-109-145-109-217 0-12 7.5-27.5t17.5-37 16-47.5 6-48q0-49-37-88t-96-39q-133 0-133 151zm399 0q0 180 236 430l92-77q-109-145-108-217 0-12 7-27.5t17-37 16.5-47.5 6.5-48q0-49-37-88t-96-39q-133 0-134 151z"/><glyph unicode="”" horiz-adv-x="972" d="M113 1094q109 145 108 217 0 10-6 25.5t-17.5 38-17.5 47-6 48.5q0 49 37 88t96 39q133 0 133-151 0-180-235-430zm399 0q109 145 109 217 0 10-6.5 25.5t-17.5 38-17.5 47-6.5 48.5q0 49 37 88t97 39q133 0 133-151 0-180-236-430z"/><glyph unicode="„" horiz-adv-x="972" d="M113-279Q222-134 221-61q0 6-6 23.5t-17.5 40-17.5 47-6 48.5q0 49 37 88t96 39q133 0 133-151 0-180-235-430zm399 0Q621-134 621-61q0 6-7.5 23.5T596 2.5t-16.5 47T573 98q0 49 37 88t97 39q133 0 133-151 0-180-236-430z"/><glyph unicode="•" horiz-adv-x="1034" d="M174 645q0 68 25.5 127T270 875.5t104.5 71T502 973t127-26.5 103-71T802.5 772 829 645t-26.5-127T732 414t-103.5-71T502 317q-136 1-232 97t-96 231z"/><glyph unicode="…" horiz-adv-x="1474" d="M113 121q0 68 37.5 106.5T248 266q59 0 95-38t36-105q0-66-38-104.5T244-20t-95 37.5T113 121zm491 0q0 68 38 106.5t97 38.5 95-38 36-105q0-66-38-104.5T735-20t-95 37.5T604 121zm492 0q0 68 37.5 106.5T1231 266q59 0 95-38t36-105q0-66-38-104.5T1227-20t-95 37.5-36 103.5z"/><glyph horiz-adv-x="383"/><glyph unicode="‹" horiz-adv-x="645" d="M113 481v123l297 328 122-82-235-307 235-307-122-82z"/><glyph unicode="›" horiz-adv-x="645" d="M123 236l235 307-235 307 123 82 297-328V481L246 154z"/><glyph horiz-adv-x="478"/><glyph unicode="€" horiz-adv-x="1286" d="M31 492h153q2-20 11.5-77t39-127.5 89-141T487 27Q538 2 592.5-9T700-20q104 0 183.5 18T1022 46t162 108l20 20-82 123q-53-43-102-66.5t-116.5-48T756 158q-98 2-163 37.5t-99.5 86-55 106.5T412 492h499v143H31V492zm0 286v144h145q23 117 67 215t109.5 163.5T518 1410t227 44q113 0 211.5-20.5T1104 1393l49-21-10-285h-133l-27 164q-98 39-256 39-78 0-134-31.5t-93-84-59.5-119T408 922h503V778H31z"/><glyph unicode="™" horiz-adv-x="1949" d="M82 1178v256h706v-256h-98l-24 139H514V774l133-26v-93H223v93l133 26v543H205l-25-139H82zm790-523v93l107 26v543l-107 20v90l285 7 197-392 202 385 271 7v-93l-103-24V774l103-26v-93h-359v93l117 26v445l-190-342-105-13-182 344V774l127-26v-93H872z"/><glyph unicode="◼" horiz-adv-x="1085" d="M0 0v1085h1085V0H0z"/><glyph unicode="ﬁ" horiz-adv-x="1464" d="M143 922v133l185 20v103q0 211 114.5 315T799 1597q96 0 198.5-17t157.5-36l53-16v-248h-164l-30 147q-92 16-205 17-276 0-277-225v-144l707 10V164l154-51V0H881v113l153 51v758H532V164l168-51V0H154v113l174 51v758H143z"/><glyph unicode="ﬂ" horiz-adv-x="1550" d="M143 922v133l185 20v123q0 190 114.5 294.5T758 1597q174 0 407-16l78-4V164l150-51V0H881v113l153 51v1259q-143 20-250 21-115 0-183.5-56.5T532 1239v-164h271l-6-153H532V164l168-51V0H154v113l174 51v758H143z"/></font>
</defs>
</svg>
