<?xml version="1.0" encoding="UTF-8" standalone="no"?>
<!-- Created with Inkscape (http://www.inkscape.org/) -->

<svg
   xmlns:dc="http://purl.org/dc/elements/1.1/"
   xmlns:cc="http://creativecommons.org/ns#"
   xmlns:rdf="http://www.w3.org/1999/02/22-rdf-syntax-ns#"
   xmlns:svg="http://www.w3.org/2000/svg"
   xmlns="http://www.w3.org/2000/svg"
   xmlns:sodipodi="http://sodipodi.sourceforge.net/DTD/sodipodi-0.dtd"
   xmlns:inkscape="http://www.inkscape.org/namespaces/inkscape"
   id="svg3039"
   version="1.1"
   inkscape:version="0.48.3.1 r9886"
   width="206.62428"
   height="61.124702"
   sodipodi:docname="donate-button.svg"
   inkscape:export-filename="/home/j/Code/commitchange/app/assets/images/graphics/donate-button.png"
   inkscape:export-xdpi="179.63278"
   inkscape:export-ydpi="179.63278">
  <metadata
     id="metadata3045">
    <rdf:RDF>
      <cc:Work
         rdf:about="">
        <dc:format>image/svg+xml</dc:format>
        <dc:type
           rdf:resource="http://purl.org/dc/dcmitype/StillImage" />
        <dc:title></dc:title>
      </cc:Work>
    </rdf:RDF>
  </metadata>
  <defs
     id="defs3043" />
  <sodipodi:namedview
     pagecolor="#ffffff"
     bordercolor="#666666"
     borderopacity="1"
     objecttolerance="10"
     gridtolerance="10"
     guidetolerance="10"
     inkscape:pageopacity="0"
     inkscape:pageshadow="2"
     inkscape:window-width="1364"
     inkscape:window-height="766"
     id="namedview3041"
     showgrid="false"
     showguides="true"
     inkscape:guide-bbox="true"
     fit-margin-top="0"
     fit-margin-left="0"
     fit-margin-right="0"
     fit-margin-bottom="0"
     inkscape:zoom="1.4615901"
     inkscape:cx="65.365368"
     inkscape:cy="78.027609"
     inkscape:window-x="0"
     inkscape:window-y="0"
     inkscape:window-maximized="0"
     inkscape:current-layer="svg3039" />
  <rect
     style="fill:#009ce6;fill-opacity:1;fill-rule:evenodd;stroke:none"
     id="rect3049"
     width="206.62428"
     height="61.124702"
     x="0"
     y="0"
     ry="29.436705"
     inkscape:export-filename="/home/j/Code/commitchange/app/assets/images/g4489.png"
     inkscape:export-xdpi="90"
     inkscape:export-ydpi="90" />
  <text
     xml:space="preserve"
     style="font-size:37.90490723px;font-style:normal;font-variant:normal;font-weight:bold;font-stretch:normal;line-height:125%;letter-spacing:-0.36828369px;word-spacing:0px;fill:#ffffff;fill-opacity:1;stroke:none;font-family:Bitter;-inkscape-font-specification:Bitter Bold"
     x="57.177105"
     y="41.982414"
     id="text3819"
     sodipodi:linespacing="125%"
     inkscape:export-filename="/home/j/Code/commitchange/app/assets/images/g4489.png"
     inkscape:export-xdpi="90"
     inkscape:export-ydpi="90"><tspan
       sodipodi:role="line"
       id="tspan3821"
       x="57.177105"
       y="41.982414"
       style="letter-spacing:-0.36828369px">Donate</tspan></text>
  <g
     transform="matrix(1.0858523,0,0,1.0858523,-65.099549,-395.69043)"
     id="g4489"
     inkscape:export-filename="/home/j/Code/commitchange/app/assets/images/g4489.png"
     inkscape:export-xdpi="90"
     inkscape:export-ydpi="90">
    <path
       style="fill:#89b32f;fill-rule:evenodd"
       inkscape:connector-curvature="0"
       id="path4491"
       d="m 99.883,404.605 c -0.106,-2.733 -1.145,-5.086 -3.115,-7.059 -0.248,-0.245 -0.5,-0.476 -0.754,-0.688 1.437,-1.609 2.156,-3.514 2.156,-5.715 0,-2.39 -0.846,-4.431 -2.538,-6.123 -1.692,-1.691 -3.732,-2.537 -6.123,-2.537 -2.389,0 -4.43,0.846 -6.122,2.537 -1.691,1.692 -2.538,3.733 -2.538,6.123 0,2.086 0.649,3.907 1.948,5.467 -0.37,0.289 -0.723,0.602 -1.061,0.936 v 0.014 c -1.873,1.881 -2.899,4.11 -3.08,6.69 -0.064,-0.065 -0.129,-0.132 -0.195,-0.2 -3.046,-3.047 -4.57,-6.713 -4.57,-10.998 0,-4.295 1.523,-7.961 4.57,-10.998 3.038,-3.043 6.699,-4.561 10.985,-4.561 4.298,0 7.966,1.518 11.004,4.561 3.037,3.037 4.556,6.703 4.556,10.998 0,4.295 -1.519,7.965 -4.556,11.011 v -0.013 c -0.188,0.19 -0.377,0.376 -0.567,0.555 z"
       clip-rule="evenodd" />
    <path
       style="fill:#ffffff;fill-rule:evenodd"
       inkscape:connector-curvature="0"
       id="path4493"
       d="m 99.883,404.605 c 0.189,-0.18 0.378,-0.365 0.568,-0.555 v 0.013 c 3.037,-3.046 4.556,-6.716 4.556,-11.011 0,-4.295 -1.519,-7.961 -4.556,-10.998 -3.038,-3.043 -6.706,-4.561 -11.004,-4.561 -4.286,0 -7.947,1.518 -10.985,4.561 -3.046,3.037 -4.57,6.703 -4.57,10.998 0,4.285 1.523,7.951 4.57,10.998 0.065,0.068 0.131,0.135 0.195,0.2 0.18,-2.58 1.207,-4.81 3.08,-6.69 v -0.014 c 0.337,-0.334 0.691,-0.646 1.061,-0.936 -1.299,-1.56 -1.948,-3.381 -1.948,-5.467 0,-2.39 0.846,-4.431 2.538,-6.123 1.692,-1.691 3.733,-2.537 6.122,-2.537 2.391,0 4.431,0.846 6.123,2.537 1.692,1.692 2.538,3.733 2.538,6.123 0,2.201 -0.719,4.105 -2.156,5.715 0.254,0.212 0.506,0.442 0.754,0.688 1.97,1.974 3.008,4.326 3.114,7.059 z m 2.662,-24.645 c 3.611,3.611 5.417,7.976 5.417,13.093 0,5.107 -1.806,9.472 -5.417,13.092 -1.127,1.119 -2.322,2.068 -3.584,2.848 -0.328,0.195 -0.678,0.258 -1.047,0.184 -0.369,-0.074 -0.67,-0.26 -0.901,-0.556 -0.23,-0.302 -0.328,-0.642 -0.293,-1.021 l 0.208,-2.586 c -0.008,-2.095 -0.76,-3.885 -2.253,-5.373 -0.544,-0.541 -1.124,-0.982 -1.739,-1.326 -0.305,-0.166 -0.518,-0.408 -0.638,-0.727 -0.14,-0.323 -0.161,-0.645 -0.063,-0.965 0.089,-0.326 0.274,-0.594 0.555,-0.799 0.264,-0.197 0.513,-0.415 0.75,-0.652 1.118,-1.117 1.676,-2.459 1.676,-4.027 0,-1.57 -0.559,-2.913 -1.676,-4.028 -1.116,-1.118 -2.459,-1.677 -4.03,-1.677 -1.567,0 -2.91,0.559 -4.028,1.677 -1.115,1.115 -1.673,2.458 -1.673,4.028 0,1.568 0.558,2.91 1.673,4.027 0.189,0.188 0.387,0.359 0.595,0.516 0.269,0.213 0.444,0.488 0.528,0.826 0.083,0.328 0.05,0.651 -0.098,0.971 -0.147,0.313 -0.375,0.549 -0.678,0.705 -0.713,0.354 -1.378,0.836 -1.997,1.451 -1.494,1.496 -2.24,3.304 -2.24,5.422 l 0.173,2.281 c 0.023,0.375 -0.083,0.711 -0.32,1.006 -0.24,0.306 -0.543,0.49 -0.914,0.555 -0.375,0.061 -0.724,-0.015 -1.047,-0.221 -1.1,-0.713 -2.138,-1.56 -3.115,-2.539 -3.622,-3.62 -5.434,-7.984 -5.434,-13.092 0,-5.117 1.816,-9.481 5.448,-13.093 h -0.014 c 3.612,-3.615 7.972,-5.421 13.08,-5.421 5.116,0 9.482,1.806 13.096,5.421 z"
       clip-rule="evenodd" />
  </g>
</svg>
