<svg xmlns="http://www.w3.org/2000/svg" width="206.624" height="61.125"><rect width="206.624" height="61.125" ry="29.437" fill="#009ce6" fill-rule="evenodd"/><text style="line-height:125%;-inkscape-font-specification:Bitter Bold" x="57.177" y="41.982" font-size="37.905" font-weight="700" letter-spacing="-.368" word-spacing="0" fill="#fff" font-family="Bitter"><tspan x="57.177" y="41.982">Donate</tspan></text><g clip-rule="evenodd" fill-rule="evenodd"><path d="M43.359 43.65c-.115-2.967-1.244-5.522-3.383-7.664a13.37 13.37 0 0 0-.819-.747c1.56-1.747 2.342-3.816 2.342-6.206 0-2.595-.92-4.811-2.756-6.649-1.838-1.836-4.053-2.754-6.649-2.754-2.594 0-4.81.918-6.648 2.754-1.836 1.838-2.755 4.054-2.755 6.65 0 2.264.704 4.242 2.115 5.935-.402.314-.785.654-1.152 1.017V36c-2.034 2.042-3.148 4.463-3.345 7.264-.07-.07-.14-.143-.211-.217-3.308-3.308-4.963-7.29-4.963-11.942 0-4.664 1.654-8.644 4.963-11.942 3.298-3.304 7.274-4.953 11.928-4.953 4.667 0 8.65 1.649 11.948 4.953 3.298 3.298 4.947 7.278 4.947 11.942 0 4.664-1.649 8.649-4.947 11.956v-.014c-.204.207-.41.408-.615.603z" fill="#89b32f"/><path d="M43.359 43.65c.205-.195.41-.395.616-.602v.014c3.298-3.307 4.948-7.292 4.948-11.956s-1.65-8.644-4.948-11.942c-3.298-3.304-7.281-4.953-11.948-4.953-4.654 0-8.63 1.649-11.928 4.953-3.308 3.298-4.963 7.278-4.963 11.942 0 4.653 1.654 8.634 4.963 11.942.07.074.142.147.211.217.196-2.801 1.311-5.223 3.345-7.264v-.015c.366-.363.75-.702 1.152-1.017-1.41-1.693-2.115-3.67-2.115-5.936 0-2.595.918-4.811 2.756-6.649 1.837-1.836 4.053-2.754 6.647-2.754 2.596 0 4.812.918 6.649 2.754 1.837 1.838 2.756 4.054 2.756 6.65 0 2.39-.781 4.457-2.341 6.205.275.23.549.48.818.747 2.14 2.143 3.267 4.697 3.382 7.665zm2.89-26.76c3.921 3.921 5.882 8.66 5.882 14.217 0 5.546-1.96 10.285-5.882 14.216a21.774 21.774 0 0 1-3.892 3.093c-.356.211-.736.28-1.136.2a1.612 1.612 0 0 1-.979-.604 1.536 1.536 0 0 1-.318-1.109l.226-2.808c-.009-2.275-.825-4.219-2.446-5.834a8.704 8.704 0 0 0-1.889-1.44 1.46 1.46 0 0 1-.693-.79c-.152-.35-.174-.7-.068-1.047.097-.354.298-.645.603-.868.286-.214.557-.45.814-.708 1.214-1.213 1.82-2.67 1.82-4.373 0-1.705-.607-3.163-1.82-4.374-1.212-1.214-2.67-1.82-4.376-1.82-1.701 0-3.16.606-4.374 1.82-1.21 1.211-1.816 2.67-1.816 4.374 0 1.703.606 3.16 1.816 4.373.206.204.42.39.646.56.292.232.482.53.574.897.09.356.054.707-.107 1.055a1.61 1.61 0 0 1-.736.765 8.329 8.329 0 0 0-2.168 1.576c-1.623 1.624-2.433 3.587-2.433 5.887l.188 2.477c.025.407-.09.772-.347 1.092a1.58 1.58 0 0 1-2.13.363 20.644 20.644 0 0 1-3.382-2.757c-3.933-3.93-5.9-8.67-5.9-14.216 0-5.556 1.971-10.295 5.915-14.217h-.015c3.922-3.925 8.656-5.886 14.203-5.886 5.555 0 10.296 1.96 14.22 5.886z" fill="#fff"/></g></svg>