<?xml version="1.0" ?><svg id="Layer_1" style="enable-background:new 0 0 64 64;" version="1.1" fill="#474747" viewBox="0 0 64 64" width="22" height="22" xml:space="preserve" xmlns="http://www.w3.org/2000/svg" xmlns:xlink="http://www.w3.org/1999/xlink"><g><path d="M30.53876,17.44348c-1.3125-1.95605-2.1875-3.97021-2.60156-5.98682C26.32561,3.59093,18.2241-1.83959,9.51532,0.91223   c-5.60352,1.77783-9.5166,7.28369-9.5166,13.39697c0,4.63574,2.27832,8.97803,6.09473,11.61523   c1.44141,0.99756,2.63281,2.35645,3.44629,3.93018c0.58105,1.12305,0.95605,2.38867,1.11523,3.76465l0.10254,0.88477h13.16504   v-7.17138h1.62109c1.47852,0,2.68066-1.20264,2.68066-2.68066v-3.66943h2.25977c0.47949,0,0.91797-0.2627,1.14355-0.68604   c0.22559-0.42285,0.2002-0.93359-0.06738-1.33301L30.53876,17.44348z M27.51532,18.98255   c-0.71191,0-1.29102,0.57861-1.29102,1.29004v4.37939c0,0.37549-0.30566,0.68066-0.68066,0.68066h-1.97852   c-0.90527,0-1.64258,0.73682-1.64258,1.64258v5.52881h-9.41113c-0.23047-1.28027-0.63086-2.47754-1.19434-3.56738   c-0.96387-1.86377-2.37598-3.47363-4.08594-4.65723c-3.27637-2.26416-5.23242-5.99121-5.23242-9.97852   c0-5.24316,3.33984-9.96484,8.12012-11.48193c7.50189-2.36712,14.46993,2.26339,15.85938,9.03906   c0.46582,2.27295,1.44141,4.52734,2.90039,6.7002l0.28516,0.42432H27.51532z"/><path d="M56.18915,22.79584l-2.22461-1.0545l-0.85742,1.80762l5.24316,2.48438l2.5127-5.24414l-1.80469-0.86426l-1.01563,2.12085   c-2.64185-6.72272-7.79187-12.21161-14.44141-15.27173l-0.83594,1.81641C48.94965,11.43701,53.73785,16.54309,56.18915,22.79584z"/><path d="M28.67645,4.39026l0.22656,1.9873c0.95703-0.10938,1.92676-0.1665,2.88281-0.17041l-0.00781-2   C30.74872,4.21106,29.70575,4.27307,28.67645,4.39026z"/><path d="M41.92255,6.06555c-0.96289-0.36963-1.95898-0.68994-2.95996-0.95117l-0.50586,1.93457   c0.92969,0.24316,1.85449,0.54053,2.74902,0.88379L41.92255,6.06555z"/><path d="M36.93622,4.66565c-1.01367-0.18652-2.05176-0.31738-3.08594-0.38965l-0.13867,1.99512   c0.95898,0.06689,1.92285,0.18848,2.86328,0.36133L36.93622,4.66565z"/><path d="M26.77411,60.04797c1.01563,0.18652,2.05371,0.31738,3.08594,0.38965l0.13867-1.99609   c-0.95801-0.06641-1.92188-0.18848-2.86328-0.36035L26.77411,60.04797z"/><path d="M18.19989,55.82043l0.50391-0.86426C12.15619,51.13965,7.71014,44.87976,6.24017,37.56061l2.06226,1.40826l1.12695-1.65234   l-4.80957-3.28418l-3.28418,4.81152l1.65234,1.12695L4.2995,38.0484c1.6001,7.8399,6.37622,14.54266,13.39648,18.63629   l0.00024-0.00031c0.70776,0.41272,1.44263,0.80029,2.18433,1.14874l0.85156-1.80859   c-0.68848-0.3252-1.37109-0.68359-2.02734-1.06738L18.19989,55.82043z"/><path d="M21.78876,58.64661c0.96094,0.36914,1.95703,0.68945,2.95996,0.95215l0.50586-1.93555   c-0.93164-0.24316-1.85547-0.54004-2.74902-0.88379L21.78876,58.64661z"/><path d="M31.9245,58.505l0.00781,2c1.0293-0.00391,2.07324-0.06543,3.10156-0.18262l-0.22656-1.98633   C33.85126,58.44446,32.88153,58.5011,31.9245,58.505z"/><path d="M13.59125,23.96192c0,1.28003,1.03003,2.32001,2.31006,2.32001s2.31995-1.03998,2.31995-2.32001v-0.52997h-4.63V23.96192z"/><path d="M14.6413,8.54193c-2.15002,0.46002-3.88013,2.17999-4.34009,4.33002c-0.40991,1.90997,0.13013,3.70001,1.23999,5   c0.88013,1.02997,1.51001,2.25,1.81006,3.56h1.55371v-3.65302l-1.10645-1.10645l1.41406-1.41406l0.73145,0.73047l0.62207-0.62256   l1.41406,1.41406l-1.0752,1.07599v3.57556h1.53638c0.33984-1.34003,1.00989-2.59003,1.8999-3.67999   c0.80005-0.97998,1.28003-2.23999,1.28003-3.60999C21.62128,10.58197,18.36127,7.76196,14.6413,8.54193z"/><path d="M54.48126,30.22193c-8.72009-2.76001-16.80994,2.69-18.42004,10.54004c-0.41992,2.01996-1.29004,4.02997-2.59998,5.98999   l-1.02991,1.52002c-0.26001,0.39996-0.29004,0.90997-0.06006,1.32996c0.22998,0.42004,0.65991,0.69,1.13989,0.69h2.26001v3.66998   c0,1.47003,1.20007,2.68005,2.68005,2.68005h1.62v7.16998h13.17004l0.09998-0.89001c0.16003-1.37,0.54004-2.64001,1.10999-3.76001   c0.81995-1.57996,2.01001-2.94,3.45007-3.92999c3.81995-2.64001,6.09998-6.97998,6.09998-11.63   C64.00128,37.50195,60.08124,31.99195,54.48126,30.22193z M50.45233,52.83368c0,1.28003-1.03979,2.32001-2.31982,2.32001   s-2.31006-1.03998-2.31006-2.32001v-0.52997h4.62988V52.83368z M52.57245,46.62372   c-0.89014,1.08997-1.56006,2.33997-1.8999,3.67999h-1.53638v-3.57556l1.0752-1.07599L48.7973,44.2381l-0.62207,0.62256   l-0.73145-0.73047l-1.41406,1.41406l1.10645,1.10645v3.65302h-1.55371c-0.30005-1.31-0.92993-2.53003-1.81006-3.56   c-1.10986-1.29999-1.6499-3.09003-1.23999-5c0.45996-2.15002,2.18994-3.87,4.34009-4.33002   c3.71997-0.77997,6.97998,2.04004,6.97998,5.60004C53.85248,44.38373,53.3725,45.64374,52.57245,46.62372z"/></g></svg>