<?xml version="1.0" encoding="utf-8"?>
<!-- Generator: Adobe Illustrator 17.0.2, SVG Export Plug-In . SVG Version: 6.00 Build 0)  -->
<!DOCTYPE svg PUBLIC "-//W3C//DTD SVG 1.1//EN" "http://www.w3.org/Graphics/SVG/1.1/DTD/svg11.dtd">
<svg version="1.1" id="Layer_1" xmlns="http://www.w3.org/2000/svg" xmlns:xlink="http://www.w3.org/1999/xlink" x="0px" y="0px"
	 width="40.625px" height="12.725px" viewBox="-2.487 12.725 40.625 12.725" enable-background="new -2.487 12.725 40.625 12.725"
	 xml:space="preserve">
<g id="Layer_3" display="none">
	<rect x="0" display="inline" fill="#594A42" width="35.276" height="25.45"/>
</g>
<g id="Layer_1_1_">
</g>
<g id="Layer_4">
	<g>
		<path fill="#FFFFFF" d="M29.882,12.725c0-6.872-5.452-12.457-12.265-12.702C17.463,0.018,17.312,0,17.156,0
			C10.128,0,4.43,5.697,4.43,12.725S10.128,25.45,17.156,25.45c0.156,0,0.307-0.018,0.461-0.023
			C24.43,25.182,29.882,19.597,29.882,12.725z"/>
		<path fill="#B3B3B3" d="M17.617,0c-0.156,0-0.307,0.018-0.461,0.023c6.813,0.245,12.265,5.829,12.265,12.702
			c0,6.872-5.452,12.457-12.265,12.702c0.154,0.006,0.305,0.023,0.461,0.023c7.028,0,12.725-5.697,12.725-12.725
			C30.342,5.697,24.645,0,17.617,0z"/>
	</g>
</g>
</svg>
