<svg width="40.625px" height="12.725px" enable-background="new -2.487 12.725 40.625 12.725" version="1.1" viewBox="-2.487 12.725 40.625 12.725" xmlns="http://www.w3.org/2000/svg"><g display="none"><rect width="35.276" height="25.45" display="inline" fill="#594A42"/></g><path d="m29.882 12.725c0-6.872-5.452-12.457-12.265-12.702-0.154-5e-3 -0.305-0.023-0.461-0.023-7.028 0-12.726 5.697-12.726 12.725s5.698 12.725 12.726 12.725c0.156 0 0.307-0.018 0.461-0.023 6.813-0.245 12.265-5.83 12.265-12.702z" fill="#fff"/><path d="m17.617 0c-0.156 0-0.307 0.018-0.461 0.023 6.813 0.245 12.265 5.829 12.265 12.702 0 6.872-5.452 12.457-12.265 12.702 0.154 6e-3 0.305 0.023 0.461 0.023 7.028 0 12.725-5.697 12.725-12.725s-5.697-12.725-12.725-12.725z" fill="#B3B3B3"/></svg>
