<?xml version="1.0" encoding="utf-8"?>
<!-- Generator: Adobe Illustrator 18.1.1, SVG Export Plug-In . SVG Version: 6.00 Build 0)  -->
<svg version="1.1" id="Layer_1" xmlns="http://www.w3.org/2000/svg" xmlns:xlink="http://www.w3.org/1999/xlink" x="0px" y="0px"
	 viewBox="-1774.6 1788.5 13.2 34.8" enable-background="new -1774.6 1788.5 13.2 34.8" xml:space="preserve">
<g id="Layer_3" display="none">
	<rect x="-1779" y="1794.3" display="inline" fill="#594A42" width="35.3" height="25.5"/>
</g>
<g id="Layer_1_1_">
</g>
<g id="Layer_4">
	<g>
		<path fill="#FFFFFF" d="M-1749.1,1805.5c0-6.9-5.5-12.5-12.3-12.7c-0.2,0-0.3,0-0.5,0c-7,0-12.7,5.7-12.7,12.7s5.7,12.7,12.7,12.7
			c0.2,0,0.3,0,0.5,0C-1754.6,1818-1749.1,1812.4-1749.1,1805.5z"/>
		<path fill="#B3B3B3" d="M-1761.4,1792.8c-0.2,0-0.3,0-0.5,0c6.8,0.2,12.3,5.8,12.3,12.7c0,6.9-5.5,12.5-12.3,12.7
			c0.2,0,0.3,0,0.5,0c7,0,12.7-5.7,12.7-12.7S-1754.4,1792.8-1761.4,1792.8z"/>
	</g>
</g>
</svg>
