<svg width="40.625" height="12.725" viewBox="-2.487 12.725 40.625 12.725" xmlns="http://www.w3.org/2000/svg"><path d="M29.882 12.725C29.882 5.853 24.43.268 17.617.023 17.463.018 17.312 0 17.156 0 10.128 0 4.43 5.697 4.43 12.725S10.128 25.45 17.156 25.45c.156 0 .307-.018.461-.023 6.813-.245 12.265-5.83 12.265-12.702z" fill="#fff"/><path d="M17.617 0c-.156 0-.307.018-.461.023 6.813.245 12.265 5.829 12.265 12.702 0 6.872-5.452 12.457-12.265 12.702.154.006.305.023.461.023 7.028 0 12.725-5.697 12.725-12.725S24.645 0 17.617 0z" fill="#B3B3B3"/></svg>