<?xml version="1.0" encoding="utf-8"?>
<!-- Generator: Adobe Illustrator 18.1.1, SVG Export Plug-In . SVG Version: 6.00 Build 0)  -->
<svg version="1.1" id="Layer_1" xmlns="http://www.w3.org/2000/svg" xmlns:xlink="http://www.w3.org/1999/xlink" x="0px" y="0px"
	 viewBox="-319 177.9 160.6 147.1" enable-background="new -319 177.9 160.6 147.1" xml:space="preserve">
<g id="Layer_1_1_">
</g>
<g id="Layer_2" opacity="0.3">
	<g id="jwOD0n_1_">
		<g>
			<path d="M-235.1,324c-0.8-0.1-1.6-0.1-2.4-0.2c-13.8-1.1-26.3-5.8-37.4-13.9c-7.5-5.5-13.7-12.3-18.6-20.3
				c-0.1-0.2-0.2-0.4-0.4-0.7c3.4-2.3,6.9-4.6,10.3-6.9c0.2,0.4,0.4,0.7,0.6,1c2.3,3.9,4.9,7.7,8.1,11c1.5,1.6,3.4,3,5.2,4.4
				c9,6.7,19,11.1,30,13.2c12.8,1.9,23.9-1.8,29.9-4.3c7.5-3.1,14.3-7.3,20.3-12.8c1.6-1.5,3-3.3,4.3-5.1c7-9.3,11-17.3,13-28.8
				c0.4-2.1,1.1-11.2,0.9-12.5c-3.8-55.9-71.4-72.8-103.2-39.4c-1.6,1.4-2.9,3.2-4.2,5c-5.7,7.6-9.7,15.9-12.2,25.1
				c0,0.2-0.1,0.4-0.1,0.6c6,0,12,0,18.2,0c-7.9,10.7-15.7,21.3-23.5,31.9c-0.1-0.1-0.2-0.2-0.2-0.3c-7.5-10.5-14.9-21-22.4-31.4
				c-0.1-0.1-0.1-0.2-0.1-0.2c0.1,0,0.3,0,0.4,0c4.9,0,9.8,0,14.7,0c0.4,0,0.6-0.1,0.7-0.6c0.2-1.1,0.4-2.3,0.7-3.4
				c4.1-17.3,13.3-31.3,27.5-42c11.1-8.3,23.6-12.8,37.4-14c0.8-0.1,1.6-0.1,2.4-0.2c2.1,0,4.2,0,6.3,0c0.2,0,0.5,0.1,0.7,0.1
				c3.8,0.2,7.6,0.7,11.3,1.5c17.5,3.9,31.8,13,42.6,27.3c8.5,11.2,13.2,23.9,14.3,37.9c0.1,0.8,0.1,1.6,0.2,2.4c0,2.1,0,4.2,0,6.3
				c0,0.3-0.1,0.5-0.1,0.8c-0.2,4.2-0.8,8.3-1.8,12.4c-4.1,17.2-13.3,31.3-27.5,41.9c-11.1,8.3-23.6,12.8-37.4,14
				c-0.8,0.1-1.6,0.1-2.4,0.2C-230.9,324-233,324-235.1,324z"/>
			<path d="M-232.5,261.2c11.3,0.2,22.6,0.3,33.9,0.5c0,0,0,0.1,0,0.1c-13.4,2.2-26.8,4.5-40.3,6.7c0.7-15.8,1.4-31.5,2.1-47.2
				c0.1,0,0.1,0,0.2,0C-235.3,234.6-233.9,247.9-232.5,261.2z"/>
		</g>
	</g>
</g>
</svg>
