<svg viewBox="-319 177.9 160.6 147.1" xmlns="http://www.w3.org/2000/svg"><g opacity=".3"><path d="M-235.1 324c-.8-.1-1.6-.1-2.4-.2-13.8-1.1-26.3-5.8-37.4-13.9-7.5-5.5-13.7-12.3-18.6-20.3-.1-.2-.2-.4-.4-.7 3.4-2.3 6.9-4.6 10.3-6.9.2.4.4.7.6 1 2.3 3.9 4.9 7.7 8.1 11 1.5 1.6 3.4 3 5.2 4.4 9 6.7 19 11.1 30 13.2 12.8 1.9 23.9-1.8 29.9-4.3 7.5-3.1 14.3-7.3 20.3-12.8 1.6-1.5 3-3.3 4.3-5.1 7-9.3 11-17.3 13-28.8.4-2.1 1.1-11.2.9-12.5-3.8-55.9-71.4-72.8-103.2-39.4-1.6 1.4-2.9 3.2-4.2 5-5.7 7.6-9.7 15.9-12.2 25.1 0 .2-.1.4-.1.6h18.2c-7.9 10.7-15.7 21.3-23.5 31.9-.1-.1-.2-.2-.2-.3-7.5-10.5-14.9-21-22.4-31.4-.1-.1-.1-.2-.1-.2h15.1c.4 0 .6-.1.7-.6.2-1.1.4-2.3.7-3.4 4.1-17.3 13.3-31.3 27.5-42 11.1-8.3 23.6-12.8 37.4-14 .8-.1 1.6-.1 2.4-.2h6.3c.2 0 .5.1.7.1 3.8.2 7.6.7 11.3 1.5 17.5 3.9 31.8 13 42.6 27.3 8.5 11.2 13.2 23.9 14.3 37.9.1.8.1 1.6.2 2.4v6.3c0 .3-.1.5-.1.8-.2 4.2-.8 8.3-1.8 12.4-4.1 17.2-13.3 31.3-27.5 41.9-11.1 8.3-23.6 12.8-37.4 14-.8.1-1.6.1-2.4.2h-6.1z"/><path d="M-232.5 261.2c11.3.2 22.6.3 33.9.5v.1c-13.4 2.2-26.8 4.5-40.3 6.7.7-15.8 1.4-31.5 2.1-47.2h.2c1.3 13.3 2.7 26.6 4.1 39.9z"/></g></svg>