<?xml version="1.0" encoding="utf-8"?>
<!-- Generator: Adobe Illustrator 17.0.2, SVG Export Plug-In . SVG Version: 6.00 Build 0)  -->
<!DOCTYPE svg PUBLIC "-//W3C//DTD SVG 1.1//EN" "http://www.w3.org/Graphics/SVG/1.1/DTD/svg11.dtd">
<svg version="1.1" id="Layer_1" xmlns="http://www.w3.org/2000/svg" xmlns:xlink="http://www.w3.org/1999/xlink" x="0px" y="0px"
	 width="197.052px" height="184.571px" viewBox="0 0 197.052 184.571" enable-background="new 0 0 197.052 184.571"
	 xml:space="preserve">
<path fill="#479EBE" d="M197.044,97.329c0.112,17.674-3.454,33.219-11.285,47.711c-3.801,7.033-8.482,13.443-13.845,19.374
	c-5.742,6.35-12.166,11.901-19.217,16.739c-1.187,0.814-2.386,1.616-3.628,2.342c-5.221,3.055-11.958-0.76-11.845-6.802
	c0.07-3.709,0.412-7.418,0.765-11.114c0.937-9.813-1.406-18.724-7.202-26.7c-3.671-5.051-8.254-9.098-13.652-12.243
	c-5.152-3.002-5.574-9.718-0.834-13.35c6.389-4.895,10.96-11,12.321-19.072c1.638-9.72-0.426-18.487-7.201-25.937
	c-4.952-5.445-10.954-8.907-18.29-9.832c-8.849-1.116-16.811,0.975-23.673,6.835c-5.864,5.007-9.602,11.236-10.536,18.931
	c-1.38,11.373,2.384,20.777,11.322,27.994c5.106,4.122,4.474,10.871-1.302,14.01c-11.593,6.302-19.02,15.756-21.48,28.875
	c-0.72,3.841-0.717,7.7-0.318,11.578c0.266,2.581,0.479,5.171,0.618,7.762c0.179,3.339-1.239,5.922-4.1,7.595
	c-2.886,1.688-5.748,1.33-8.475-0.497c-15.897-10.654-28.229-24.431-36.435-41.779c-4.137-8.747-6.605-17.989-7.885-27.57
	C0.284,107.811-0.007,103.415,0,99.032c0.023-14.691,2.663-28.851,9.037-42.208C13.52,47.429,19.462,39.08,26.549,31.47
	c8.49-9.116,18.187-16.574,29.386-22.029c9.209-4.486,18.933-7.279,29.101-8.545c4.925-0.613,9.869-0.968,14.824-0.883
	c15.71,0.269,30.689,3.584,44.619,11.054c6.972,3.739,13.375,8.293,19.262,13.587c8.208,7.379,15.258,15.696,20.798,25.267
	c6.005,10.374,9.779,21.511,11.49,33.363C196.763,88.356,197.109,93.453,197.044,97.329z M41.097,157.704
	c0.151-1.312,0.258-2.462,0.42-3.604c2.081-14.702,9.375-26.41,20.635-35.82c0.705-0.589,0.823-0.975,0.223-1.739
	c-8.262-10.509-10.943-22.483-9.047-35.551c1.728-11.909,7.804-21.371,17.054-28.821c10.993-8.854,23.636-11.441,37.356-9.063
	c10.678,1.851,19.305,7.367,26.337,15.504c9.218,10.667,12.238,23.116,10.439,36.874c-1.119,8.554-4.673,16.069-10.313,22.591
	c-0.474,0.548-0.483,0.861,0.093,1.351c2.562,2.179,4.892,4.59,7.049,7.174c6.649,7.964,10.776,17.046,12.23,27.332
	c0.261,1.843,0.435,3.695,0.545,5.916c9.214-8.431,16.297-17.98,20.938-29.229c6.949-16.843,7.925-34.238,3.933-51.883
	c-7.209-31.862-37.943-61.948-78.162-62.965c-38.58-0.975-70.405,24.497-80.804,56.61C9.37,105.275,19.521,138.135,41.097,157.704z"
	/>
</svg>
