<?xml version="1.0" encoding="UTF-8" standalone="no"?>
<!-- Created with Inkscape (http://www.inkscape.org/) -->

<svg
   xmlns:dc="http://purl.org/dc/elements/1.1/"
   xmlns:cc="http://creativecommons.org/ns#"
   xmlns:rdf="http://www.w3.org/1999/02/22-rdf-syntax-ns#"
   xmlns:svg="http://www.w3.org/2000/svg"
   xmlns="http://www.w3.org/2000/svg"
   xmlns:sodipodi="http://sodipodi.sourceforge.net/DTD/sodipodi-0.dtd"
   xmlns:inkscape="http://www.inkscape.org/namespaces/inkscape"
   width="78mm"
   height="87mm"
   viewBox="0 0 78 87"
   version="1.1"
   id="svg3983"
   inkscape:version="0.92.3 (2405546, 2018-03-11)"
   sodipodi:docname="commitchange_logo_bug.svg">
  <defs
     id="defs3977" />
  <sodipodi:namedview
     id="base"
     pagecolor="#ffffff"
     bordercolor="#666666"
     borderopacity="1.0"
     inkscape:pageopacity="0.0"
     inkscape:pageshadow="2"
     inkscape:zoom="0.35"
     inkscape:cx="-37.629901"
     inkscape:cy="-332.42698"
     inkscape:document-units="mm"
     inkscape:current-layer="layer1"
     showgrid="false"
     fit-margin-top="0"
     fit-margin-left="0"
     fit-margin-right="0"
     fit-margin-bottom="0"
     inkscape:window-width="1855"
     inkscape:window-height="1056"
     inkscape:window-x="65"
     inkscape:window-y="24"
     inkscape:window-maximized="1" />
  <metadata
     id="metadata3980">
    <rdf:RDF>
      <cc:Work
         rdf:about="">
        <dc:format>image/svg+xml</dc:format>
        <dc:type
           rdf:resource="http://purl.org/dc/dcmitype/StillImage" />
        <dc:title></dc:title>
      </cc:Work>
    </rdf:RDF>
  </metadata>
  <g
     inkscape:label="Layer 1"
     inkscape:groupmode="layer"
     id="layer1"
     transform="translate(11.210422,26.121302)">
    <path
       inkscape:connector-curvature="0"
       style="fill:#479ebe;stroke-width:0.26458332"
       d="m 66.211451,19.377772 c 0.05292,6.905625 -1.349375,12.964583 -4.392084,18.600208 -1.508125,2.751667 -3.307291,5.23875 -5.423958,7.540625 -2.2225,2.460625 -4.736042,4.630209 -7.487708,6.535209 -0.47625,0.3175 -0.926042,0.635 -1.402292,0.926041 -2.037292,1.190625 -4.656667,-0.291041 -4.630208,-2.645833 0.05292,-1.42875 0.15875,-2.910417 0.291041,-4.339167 0.370417,-3.836458 -0.555625,-7.3025 -2.804583,-10.424583 -1.42875,-1.957917 -3.227917,-3.545417 -5.318125,-4.788958 -1.984375,-1.164167 -2.143125,-3.783542 -0.3175,-5.185834 2.460625,-1.905 4.259792,-4.312708 4.788958,-7.408333 0.635,-3.783542 -0.15875,-7.223125 -2.804583,-10.1335426 -1.905,-2.116666 -4.259792,-3.466041 -7.14375,-3.836458 -3.439583,-0.449792 -6.535208,0.396875 -9.2075,2.672292 -2.275417,1.957916 -3.757083,4.3920836 -4.101042,7.3818756 -0.529165,4.418541 0.926042,8.09625 4.418542,10.927291 1.984375,1.5875 1.74625,4.233334 -0.529167,5.476875 -4.497915,2.460625 -7.408332,6.138334 -8.38729,11.244792 -0.291042,1.508125 -0.291042,2.989792 -0.132292,4.497917 0.132292,1.005416 0.211667,2.037291 0.238125,3.042708 0.07937,1.322917 -0.47625,2.301875 -1.5875,2.963333 -1.1112498,0.661459 -2.2224998,0.529167 -3.3072908,-0.211666 -6.19124998,-4.153959 -11.0066669,-9.525 -14.2081252,-16.271875 -1.5875001,-3.386667 -2.5929166,-7.011459 -3.069167,-10.742084 -0.238125,-1.719791 -0.370417,-3.439583 -0.3175,-5.159375 0,-5.741458 1.0318754,-11.2447916 3.5189587,-16.4835416 1.74625,-3.67770932 4.0745833,-6.9056254 6.82624952,-9.8954174 3.30729198,-3.5454167 7.09083398,-6.455833 11.45645878,-8.5725 3.598333,-1.74625 7.381873,-2.831041 11.324165,-3.360208 1.905,-0.238125 3.836458,-0.370416 5.794375,-0.370416 6.138333,0.132291 11.959167,1.402291 17.383125,4.312708 2.725208,1.481666 5.23875,3.227916 7.487708,5.3181243 3.201459,2.8839587 5.953125,6.1118747 8.09625,9.84249978 2.354792,4.02166732 3.836459,8.38729232 4.471459,13.01750092 0.343958,2.010834 0.502708,3.995209 0.47625,5.529792 z M 5.4102022,42.89923 c 0.05292,-0.529166 0.132292,-0.9525 0.15875,-1.402291 0.79375,-5.741459 3.677708,-10.292292 8.0697918,-13.97 0.291041,-0.238125 0.3175,-0.396875 0.07938,-0.687917 -3.227917,-4.101042 -4.2597918,-8.784167 -3.518959,-13.837708 0.687917,-4.6302096 3.042709,-8.3343756 6.667499,-11.244793 4.259792,-3.466042 9.2075,-4.471458 14.552083,-3.545417 4.153959,0.714375 7.540625,2.883959 10.265834,6.0589594 3.598333,4.153958 4.788958,9.0222916 4.074583,14.3668756 -0.449792,3.360208 -1.825625,6.270625 -4.021667,8.810625 -0.211666,0.211666 -0.211666,0.3175 0.05292,0.529166 1.005417,0.846667 1.905,1.799167 2.751667,2.804584 2.592916,3.122083 4.180416,6.6675 4.788958,10.662708 0.132292,0.714375 0.15875,1.42875 0.211667,2.301875 3.598333,-3.280833 6.35,-7.011458 8.175625,-11.403542 2.7252,-6.588125 3.069158,-13.361458 1.508117,-20.214166 -2.804584,-12.40895992 -14.790209,-24.130001 -30.48,-24.526876 C 13.718119,-12.795562 1.3091602,-2.873687 -2.7654227,9.6675634 -6.9722977,22.446939 -3.0035477,35.27923 5.4102022,42.89923 Z"
       id="path3831" />
  </g>
</svg>
