<svg width="78mm" height="87mm" version="1.1" viewBox="0 0 78 87" xmlns="http://www.w3.org/2000/svg"><g transform="translate(11.21 26.121)"><path d="m66.211 19.378c0.05292 6.9056-1.3494 12.965-4.3921 18.6-1.5081 2.7517-3.3073 5.2388-5.424 7.5406-2.2225 2.4606-4.736 4.6302-7.4877 6.5352-0.47625 0.3175-0.92604 0.635-1.4023 0.92604-2.0373 1.1906-4.6567-0.29104-4.6302-2.6458 0.05292-1.4288 0.15875-2.9104 0.29104-4.3392 0.37042-3.8365-0.55562-7.3025-2.8046-10.425-1.4288-1.9579-3.2279-3.5454-5.3181-4.789-1.9844-1.1642-2.1431-3.7835-0.3175-5.1858 2.4606-1.905 4.2598-4.3127 4.789-7.4083 0.635-3.7835-0.15875-7.2231-2.8046-10.134-1.905-2.1167-4.2598-3.466-7.1438-3.8365-3.4396-0.44979-6.5352 0.39688-9.2075 2.6723-2.2754 1.9579-3.7571 4.3921-4.101 7.3819-0.52916 4.4185 0.92604 8.0962 4.4185 10.927 1.9844 1.5875 1.7462 4.2333-0.52917 5.4769-4.4979 2.4606-7.4083 6.1383-8.3873 11.245-0.29104 1.5081-0.29104 2.9898-0.13229 4.4979 0.13229 1.0054 0.21167 2.0373 0.23812 3.0427 0.07937 1.3229-0.47625 2.3019-1.5875 2.9633-1.1112 0.66146-2.2225 0.52917-3.3073-0.21167-6.1912-4.154-11.007-9.525-14.208-16.272-1.5875-3.3867-2.5929-7.0115-3.0692-10.742-0.23812-1.7198-0.37042-3.4396-0.3175-5.1594 0-5.7415 1.0319-11.245 3.519-16.484 1.7462-3.6777 4.0746-6.9056 6.8262-9.8954 3.3073-3.5454 7.0908-6.4558 11.456-8.5725 3.5983-1.7462 7.3819-2.831 11.324-3.3602 1.905-0.23812 3.8365-0.37042 5.7944-0.37042 6.1383 0.13229 11.959 1.4023 17.383 4.3127 2.7252 1.4817 5.2388 3.2279 7.4877 5.3181 3.2015 2.884 5.9531 6.1119 8.0962 9.8425 2.3548 4.0217 3.8365 8.3873 4.4715 13.018 0.34396 2.0108 0.50271 3.9952 0.47625 5.5298zm-60.801 23.521c0.05292-0.52917 0.13229-0.9525 0.15875-1.4023 0.79375-5.7415 3.6777-10.292 8.0698-13.97 0.29104-0.23812 0.3175-0.39688 0.07938-0.68792-3.2279-4.101-4.2598-8.7842-3.519-13.838 0.68792-4.6302 3.0427-8.3344 6.6675-11.245 4.2598-3.466 9.2075-4.4715 14.552-3.5454 4.154 0.71438 7.5406 2.884 10.266 6.059 3.5983 4.154 4.789 9.0223 4.0746 14.367-0.44979 3.3602-1.8256 6.2706-4.0217 8.8106-0.21167 0.21167-0.21167 0.3175 0.05292 0.52917 1.0054 0.84667 1.905 1.7992 2.7517 2.8046 2.5929 3.1221 4.1804 6.6675 4.789 10.663 0.13229 0.71438 0.15875 1.4288 0.21167 2.3019 3.5983-3.2808 6.35-7.0115 8.1756-11.404 2.7252-6.5881 3.0692-13.361 1.5081-20.214-2.8046-12.409-14.79-24.13-30.48-24.527-15.028-0.39688-27.437 9.525-31.512 22.066-4.2069 12.779-0.23812 25.612 8.1756 33.232z" fill="#479ebe" stroke-width=".26458"/></g></svg>
