<svg width="78mm" height="87mm" viewBox="0 0 78 87" xmlns="http://www.w3.org/2000/svg"><path d="M77.421 45.499c.053 6.906-1.35 12.965-4.392 18.6a38.145 38.145 0 0 1-5.424 7.54c-2.223 2.461-4.736 4.63-7.488 6.536-.476.317-.926.635-1.402.926-2.037 1.19-4.657-.291-4.63-2.646a80.09 80.09 0 0 1 .29-4.34c.371-3.836-.555-7.302-2.804-10.424-1.429-1.958-3.228-3.546-5.318-4.79-1.984-1.163-2.143-3.783-.317-5.185 2.46-1.905 4.26-4.313 4.789-7.408.635-3.784-.16-7.223-2.805-10.134-1.905-2.117-4.26-3.466-7.144-3.837-3.44-.45-6.535.397-9.207 2.673-2.276 1.957-3.757 4.392-4.101 7.381-.53 4.419.926 8.097 4.418 10.927 1.985 1.588 1.746 4.234-.529 5.477-4.498 2.46-7.408 6.139-8.387 11.245-.291 1.508-.291 2.99-.133 4.498.133 1.006.212 2.038.238 3.043.08 1.323-.476 2.302-1.587 2.963-1.111.662-2.223.53-3.307-.211-6.192-4.154-11.007-9.525-14.208-16.272-1.588-3.387-2.593-7.012-3.07-10.742-.238-1.72-.37-3.44-.317-5.16 0-5.741 1.032-11.245 3.519-16.484 1.746-3.678 4.075-6.905 6.826-9.895 3.307-3.546 7.091-6.456 11.456-8.573 3.598-1.746 7.382-2.83 11.324-3.36a46.67 46.67 0 0 1 5.795-.37c6.138.132 11.959 1.402 17.383 4.312 2.725 1.482 5.238 3.228 7.487 5.318 3.202 2.884 5.953 6.112 8.096 9.843 2.355 4.022 3.837 8.387 4.472 13.018.344 2.01.503 3.995.476 5.53zM16.62 69.02c.053-.53.132-.953.159-1.402.793-5.742 3.677-10.292 8.07-13.97.29-.238.317-.397.079-.688-3.228-4.101-4.26-8.784-3.52-13.838.689-4.63 3.044-8.335 6.668-11.245 4.26-3.466 9.208-4.472 14.552-3.546 4.154.715 7.541 2.884 10.266 6.06 3.599 4.153 4.79 9.022 4.075 14.366-.45 3.36-1.826 6.271-4.022 8.811-.211.212-.211.317.053.53 1.006.846 1.905 1.798 2.752 2.804 2.593 3.122 4.18 6.667 4.789 10.663.132.714.159 1.429.212 2.302 3.598-3.281 6.35-7.012 8.175-11.404 2.725-6.588 3.07-13.361 1.508-20.214-2.804-12.41-14.79-24.13-30.48-24.527-15.028-.397-27.437 9.525-31.512 22.066C4.237 48.567 8.206 61.4 16.62 69.02z" fill="#479ebe"/></svg>