<?xml version="1.0" encoding="UTF-8" standalone="no"?>
<svg
   xmlns:dc="http://purl.org/dc/elements/1.1/"
   xmlns:cc="http://creativecommons.org/ns#"
   xmlns:rdf="http://www.w3.org/1999/02/22-rdf-syntax-ns#"
   xmlns:svg="http://www.w3.org/2000/svg"
   xmlns="http://www.w3.org/2000/svg"
   xmlns:sodipodi="http://sodipodi.sourceforge.net/DTD/sodipodi-0.dtd"
   xmlns:inkscape="http://www.inkscape.org/namespaces/inkscape"
   xml:space="preserve"
   enable-background="new 89.8 17.8 1535.2 390"
   viewBox="89.8 17.8 1412.8438 272.28888"
   y="0px"
   x="0px"
   id="Layer_1"
   version="1.1"
   sodipodi:docname="commitchange_logo_full.svg"
   width="1412.8438"
   height="272.28888"
   inkscape:version="0.92.3 (2405546, 2018-03-11)"><sodipodi:namedview
   pagecolor="#ffffff"
   bordercolor="#666666"
   borderopacity="1"
   objecttolerance="10"
   gridtolerance="10"
   guidetolerance="10"
   inkscape:pageopacity="0"
   inkscape:pageshadow="2"
   inkscape:window-width="1855"
   inkscape:window-height="1056"
   id="namedview27"
   showgrid="false"
   fit-margin-top="0"
   fit-margin-left="0"
   fit-margin-right="0"
   fit-margin-bottom="0"
   inkscape:zoom="0.87806152"
   inkscape:cx="711.86023"
   inkscape:cy="125.63672"
   inkscape:window-x="65"
   inkscape:window-y="24"
   inkscape:window-maximized="1"
   inkscape:current-layer="Layer_1" /><metadata
   id="metadata3864"><rdf:RDF><cc:Work
       rdf:about=""><dc:format>image/svg+xml</dc:format><dc:type
         rdf:resource="http://purl.org/dc/dcmitype/StillImage" /><dc:title></dc:title></cc:Work></rdf:RDF></metadata><defs
   id="defs3862" />
<path
   id="path3831"
   d="m 380.24377,161.5 c 0.2,26.1 -5.1,49 -16.6,70.3 -5.7,10.4 -12.5,19.8 -20.5,28.5 -8.4,9.3 -17.9,17.5 -28.3,24.7 -1.8,1.2 -3.5,2.4 -5.3,3.5 -7.7,4.5 -17.6,-1.1 -17.5,-10 0.2,-5.4 0.6,-11 1.1,-16.4 1.4,-14.5 -2.1,-27.6 -10.6,-39.4 -5.4,-7.4 -12.2,-13.4 -20.1,-18.1 -7.5,-4.4 -8.1,-14.3 -1.2,-19.6 9.3,-7.2 16.1,-16.3 18.1,-28 2.4,-14.3 -0.6,-27.3 -10.6,-38.3 -7.2,-8 -16.1,-13.1 -27,-14.5 -13,-1.7 -24.7,1.5 -34.8,10.1 -8.6,7.4 -14.2,16.6 -15.5,27.9 -2,16.7 3.5,30.6 16.7,41.3 7.5,6 6.6,16 -2,20.7 -17,9.3 -28,23.2 -31.7,42.5 -1.1,5.7 -1.1,11.3 -0.5,17 0.5,3.8 0.8,7.7 0.9,11.5 0.3,5 -1.8,8.7 -6,11.2 -4.2,2.5 -8.4,2 -12.5,-0.8 -23.4,-15.7 -41.6,-36 -53.7,-61.5 -5.999995,-12.8 -9.799995,-26.5 -11.599995,-40.6 -0.9,-6.5 -1.4,-13 -1.2,-19.5 0,-21.7 3.9,-42.5 13.299995,-62.3 6.6,-13.9 15.4,-26.1 25.8,-37.4 12.5,-13.4 26.8,-24.4 43.3,-32.4 13.6,-6.6 27.9,-10.7 42.8,-12.7 7.2,-0.9 14.5,-1.4 21.9,-1.4 23.2,0.5 45.2,5.3 65.7,16.3 10.3,5.6 19.8,12.2 28.3,20.1 12.1,10.9 22.5,23.1 30.6,37.2 8.9,15.2 14.5,31.7 16.9,49.2 1.3,7.6 1.9,15.1 1.8,20.9 z m -229.8,88.9 c 0.2,-2 0.5,-3.6 0.6,-5.3 3,-21.7 13.9,-38.9 30.5,-52.8 1.1,-0.9 1.2,-1.5 0.3,-2.6 -12.2,-15.5 -16.1,-33.2 -13.3,-52.3 2.6,-17.5 11.5,-31.5 25.2,-42.5 16.1,-13.1 34.8,-16.9 55,-13.4 15.7,2.7 28.5,10.9 38.8,22.9 13.6,15.7 18.1,34.1 15.4,54.3 -1.7,12.7 -6.9,23.7 -15.2,33.3 -0.8,0.8 -0.8,1.2 0.2,2 3.8,3.2 7.2,6.8 10.4,10.6 9.8,11.8 15.8,25.2 18.1,40.3 0.5,2.7 0.6,5.4 0.8,8.7 13.6,-12.4 24,-26.5 30.9,-43.1 10.3,-24.9 11.6,-50.5 5.7,-76.4 -10.6,-46.9 -55.9,-91.2 -115.2,-92.7 -56.8,-1.5 -103.7,36 -119.1,83.4 -15.9,48.3 -0.9,96.8 30.9,125.6 z"
   inkscape:connector-curvature="0"
   style="fill:#479ebe" />
<g
   id="g3857"
   transform="translate(-64.156225,-54.2)">
	<path
   id="path3833"
   d="m 545.8,192 c -5,-1.7 -10.4,-2.5 -17,-2.5 -17,0 -25.3,12.4 -25.3,37.7 0,23.6 8.7,35.2 26.1,35.2 4.6,0 9.1,-0.8 14.1,-2.5 5,-1.7 8.7,-3.7 11.2,-5.4 l 3.7,-2.5 8.3,13.7 c -0.4,0.4 -0.8,0.8 -1.7,1.7 -0.8,0.8 -2.5,2.1 -5.4,4.1 -2.9,2.1 -5.4,3.7 -8.7,5 -2.9,1.2 -6.6,2.9 -11.2,4.1 -4.6,1.2 -9.1,1.7 -13.3,1.7 -15.7,0 -27.8,-4.6 -36.4,-13.7 -8.7,-9.1 -12.8,-22.8 -12.8,-40.6 0,-17.8 4.6,-31.9 14.1,-42.2 9.1,-10.4 22,-15.3 37.7,-15.3 5.4,0 11.2,0.4 17,1.7 5.8,1.2 10.4,2.5 13.7,3.7 l 5,1.7 -0.8,29 h -14.9 z"
   inkscape:connector-curvature="0"
   style="fill:#494949" />
	<path
   id="path3835"
   d="m 610.8,198.2 c 12,0 21.1,3.3 27.8,10.4 6.6,7 9.9,17 9.9,29.8 0,13.3 -3.7,24 -10.8,31.5 -7,7.9 -17,11.6 -29,11.6 -25.3,0 -38.1,-13.7 -38.1,-41 0,-13.3 3.7,-23.6 10.8,-31.1 7.5,-7.4 17,-11.2 29.4,-11.2 z m -0.8,17.4 c -5.8,0 -9.9,1.7 -12.4,5.4 -2.5,3.7 -4.1,9.9 -4.1,19.1 0,8.7 1.2,14.9 3.7,18.6 2.5,3.7 6.6,5.8 12,5.8 5.4,0 9.5,-2.1 12,-5.8 2.5,-3.7 3.7,-10.4 3.7,-19.5 0,-7.9 -1.2,-14.1 -3.7,-17.8 -2.1,-4.1 -5.8,-5.8 -11.2,-5.8 z"
   inkscape:connector-curvature="0"
   style="fill:#494949" />
	<path
   id="path3837"
   d="m 777.7,225.2 v 39.3 l 9.9,3.7 v 12 h -39.8 v -12 l 7.9,-3.7 v -35.2 c 0,-4.1 -0.8,-7.5 -2.1,-9.1 -1.2,-1.7 -3.7,-2.9 -6.6,-2.9 -2.9,0 -5.8,0.8 -8.3,2.1 -2.9,1.2 -4.6,2.5 -6.2,3.7 l -2.1,2.1 v 39.3 l 7.9,3.7 v 12 h -37.7 v -12 l 7.9,-3.7 v -35.2 c 0,-4.1 -0.8,-7.5 -2.1,-9.1 -1.2,-2.1 -3.3,-2.9 -6.6,-2.9 -2.9,0 -5.8,0.8 -8.7,2.1 -2.9,1.2 -5,2.5 -6.2,3.7 l -2.1,2.1 v 39.3 l 7.9,3.7 v 12 h -41.4 v -12 l 11.6,-3.7 v -48.9 l -11.2,-2.9 v -12 l 30.7,-1.2 1.2,10.8 c 0.8,-0.8 2.5,-2.1 4.1,-3.3 1.7,-1.2 5,-3.3 9.5,-5.4 4.5,-2.1 8.7,-3.3 12.8,-3.3 9.9,0 16.6,4.1 20.3,12.8 1.7,-1.7 3.3,-2.9 5.4,-4.6 2.1,-1.7 5,-3.3 9.5,-5.4 4.1,-2.1 8.3,-2.9 12.4,-2.9 7.5,0 13.3,2.5 17,7 3.1,5.1 5.1,11.3 5.1,20 z"
   inkscape:connector-curvature="0"
   style="fill:#494949" />
	<path
   id="path3839"
   d="m 921,225.2 v 39.3 l 9.9,3.7 v 12 h -39.8 v -12 l 7.9,-3.7 v -35.2 c 0,-4.1 -0.8,-7.5 -2.1,-9.1 -1.2,-1.7 -3.7,-2.9 -6.6,-2.9 -2.9,0 -5.8,0.8 -8.3,2.1 -2.9,1.2 -4.6,2.5 -6.2,3.7 l -2.1,2.1 v 39.3 l 7.9,3.7 v 12 H 844 v -12 l 7.9,-3.7 v -35.2 c 0,-4.1 -0.8,-7.5 -2.1,-9.1 -1.2,-2.1 -3.3,-2.9 -6.6,-2.9 -2.9,0 -5.8,0.8 -8.7,2.1 -2.9,1.2 -5,2.5 -6.2,3.7 l -2.1,2.1 v 39.3 l 7.9,3.7 v 12 h -41.4 v -12 l 11.6,-3.7 v -48.9 l -11.2,-2.9 v -12 l 30.7,-1.2 1.2,10.8 c 0.8,-0.8 2.5,-2.1 4.1,-3.3 1.7,-1.2 5,-3.3 9.5,-5.4 4.5,-2.1 8.7,-3.3 12.8,-3.3 9.9,0 16.6,4.1 20.3,12.8 1.7,-1.7 3.3,-2.9 5.4,-4.6 2.1,-1.7 5,-3.3 9.5,-5.4 4.1,-2.1 8.3,-2.9 12.4,-2.9 7.5,0 13.3,2.5 17,7 3.4,5.1 5,11.3 5,20 z"
   inkscape:connector-curvature="0"
   style="fill:#494949" />
	<path
   id="path3841"
   d="m 933.9,201.1 34,-1.2 v 65 l 10.4,3.7 v 12 H 934 v -12 l 12,-3.7 V 216 l -12,-2.9 v -12 z m 9.1,-26 c 0,-4.1 1.2,-7.5 3.7,-9.9 2.5,-2.4 5.4,-3.7 9.1,-3.7 8.3,0 12.4,4.6 12.4,13.3 0,4.1 -1.2,7.5 -3.7,9.9 -2.5,2.5 -5.4,3.7 -8.7,3.7 -4.1,0 -7,-1.2 -9.5,-3.3 -2.1,-2.2 -3.3,-5.5 -3.3,-10 z"
   inkscape:connector-curvature="0"
   style="fill:#494949" />
	<path
   id="path3843"
   d="m 1014.2,281.9 c -8.3,0 -14.1,-2.5 -17,-7.9 -2.9,-5.4 -4.6,-14.5 -4.6,-27.8 V 218.4 H 979 v -14.1 l 13.7,-2.1 v -20.7 l 22,-4.1 V 202 h 20.7 v 16.2 h -20.7 v 33.6 c 0,5 0.4,8.3 1.7,10.4 1.2,2.1 3.3,2.9 6.2,2.9 3.7,0 7.5,-1.2 11.6,-3.3 l 5.4,10.8 c -8.8,6 -17.5,9.3 -25.4,9.3 z"
   inkscape:connector-curvature="0"
   style="fill:#494949" />
	<path
   id="path3845"
   d="m 1112.4,192 c -5,-1.7 -10.4,-2.5 -17,-2.5 -17,0 -25.3,12.4 -25.3,37.7 0,23.6 8.7,35.2 26.1,35.2 4.6,0 9.1,-0.8 14.1,-2.5 5,-1.7 8.7,-3.7 11.2,-5.4 l 3.7,-2.5 8.3,13.7 c -0.4,0.4 -0.8,0.8 -1.7,1.7 -0.8,0.8 -2.5,2.1 -5.4,4.1 -2.9,2 -5.4,3.7 -8.7,5 -2.9,1.2 -6.6,2.9 -11.2,4.1 -4.6,1.2 -9.1,1.7 -13.3,1.7 -15.7,0 -27.8,-4.6 -36.4,-13.7 -8.7,-9.1 -12.8,-22.8 -12.8,-40.6 0,-17.8 4.6,-31.9 14.1,-42.2 9.1,-10.4 22,-15.3 37.7,-15.3 5.4,0 11.2,0.4 17,1.7 5.8,1.2 10.4,2.5 13.7,3.7 l 5,1.7 -0.8,29 h -14.9 z"
   inkscape:connector-curvature="0"
   style="fill:#479ebe" />
	<path
   id="path3847"
   d="m 1138.9,165.9 34,-1.2 v 43.5 c 8.3,-6.6 16.6,-9.9 24.9,-9.9 7.5,0 13.3,2.5 17,7 3.7,4.5 5.8,11.2 5.8,19.9 v 39.3 l 10.4,3.7 v 12 h -40.2 v -12 l 7.9,-3.7 v -36 c 0,-7.9 -3.3,-12 -9.9,-12 -2.5,0 -5,0.8 -7.9,2.1 -2.9,1.2 -5,2.5 -6.2,4.1 l -2.1,2.1 V 265 l 7.9,3.7 v 12 h -41.8 v -12 l 12,-3.7 v -83.7 l -12,-2.9 V 166 h 0.2 z"
   inkscape:connector-curvature="0"
   style="fill:#479ebe" />
	<path
   id="path3849"
   d="m 1313.7,279.4 -29.4,1.2 -2.9,-9.9 c -0.8,0.8 -2.1,1.7 -3.7,2.9 -1.7,1.2 -4.1,2.9 -8.7,5 -4.1,2.1 -8.3,3.3 -12,3.3 -7.5,0 -12.8,-2.1 -17,-6.2 -4.1,-4.1 -6.2,-9.9 -6.2,-17.4 0,-16.6 12,-24.4 35.6,-24.4 h 10.4 v -8.3 c 0,-7.5 -3.7,-11.2 -11.6,-11.2 -2.5,0 -4.6,0 -6.6,0.4 -2.1,0.4 -3.7,0.8 -5,1.2 l -1.7,0.4 -2.1,9.5 H 1240 l -1.2,-22 c 12,-4.1 22.8,-5.8 32.3,-5.8 11.2,0 19.5,2.1 24,6.6 4.6,4.6 7,12 7,22.8 v 36.9 l 11.2,2.5 v 12.4 h 0.4 z m -58,-23.2 c 0,5.8 2.9,9.1 8.7,9.1 2.5,0 5,-0.8 7.5,-2.1 2.5,-1.2 4.6,-2.9 6.2,-4.6 l 2.1,-2.1 v -9.9 h -8.7 c -5.8,0 -9.9,0.8 -12.4,2.5 -2.1,1.3 -3.4,3.8 -3.4,7.1 z"
   inkscape:connector-curvature="0"
   style="fill:#479ebe" />
	<path
   id="path3851"
   d="m 1319.1,201.1 31.1,-1.2 1.2,10.4 c 1.2,-0.8 2.5,-2.1 4.1,-3.3 1.7,-1.2 5,-2.9 9.9,-5 5,-2.1 9.1,-3.3 13.3,-3.3 7,0 12.8,2.5 16.6,7 3.8,4.5 5.8,11.2 5.8,19.5 v 39.3 c 1.2,0.4 3.3,1.2 5.4,2.1 2.5,0.8 4.1,1.7 5,1.7 v 12 h -40.2 v -12 l 7.9,-3.7 v -36 c 0,-3.3 -0.8,-6.2 -2.9,-8.7 -1.7,-2.1 -4.1,-3.3 -7.5,-3.3 -2.9,0 -5.4,0.8 -8.3,2.1 -2.9,1.2 -4.6,2.9 -5.8,4.1 l -2.1,2.1 v 39.3 l 7.9,3.7 v 12 h -41.4 v -12 l 11.6,-3.7 v -48.9 l -11.6,-2.9 c 0,-0.1 0,-11.3 0,-11.3 z"
   inkscape:connector-curvature="0"
   style="fill:#479ebe" />
	<path
   id="path3853"
   d="m 1411.9,296.8 c 0,-3.7 1.2,-7 3.7,-9.9 2.5,-2.9 5,-5 7.9,-6.2 l 4.1,-1.7 c -0.8,0 -1.7,-0.4 -2.5,-0.4 -0.8,0 -2.5,-1.2 -4.1,-2.9 -1.7,-1.7 -2.5,-3.7 -2.5,-6.2 0,-2.9 2.5,-8.7 7.9,-17 -7.5,-5 -11.6,-12.8 -11.6,-23.2 0,-9.9 3.3,-17.4 9.9,-22.8 6.6,-5.4 15.3,-7.9 25.7,-7.9 6.6,0 12.4,1.2 17.4,3.7 l 25.7,-0.4 v 12 l -12.4,2.1 c 0,0 0.4,0.8 0.8,2.1 0.4,1.2 0.8,2.9 1.2,4.6 0.4,1.7 0.4,3.3 0.4,5.4 0,10.4 -3.3,17.8 -9.5,23.2 -6.6,5 -15.3,7.5 -26.1,7.5 -1.2,0 -2.5,0 -3.3,0 -1.2,0 -2.1,-0.4 -2.9,-0.4 -0.8,0 -1.2,-0.4 -1.2,-0.4 l -0.4,9.9 h 22 c 9.5,0 17,2.1 22,5.8 5,3.7 7.9,9.5 7.9,17 0,8.7 -3.3,15.3 -10.4,20.7 -7,5 -17.4,7.9 -31.1,7.9 -12.4,0 -22,-1.7 -28.6,-5 -6.7,-3.4 -10,-9.6 -10,-17.5 z m 44.3,-13.6 h -15.7 c -0.4,0 -1.2,0.4 -2.1,1.2 -0.8,0.4 -2.1,1.7 -3.3,3.3 -1.2,1.7 -2.1,3.3 -2.1,5.4 0,3.7 1.7,5.8 4.6,7 2.9,1.2 7.9,1.7 14.1,1.7 6.6,0 11.6,-0.8 14.5,-2.5 2.9,-1.7 4.6,-4.1 4.6,-7.9 0,-3.3 -1.2,-5.4 -3.3,-6.6 -2.2,-0.8 -5.9,-1.6 -11.3,-1.6 z m -6.2,-69.6 c -8.3,0 -12.8,4.6 -12.8,14.1 0,9.9 4.1,14.9 12,14.9 4.6,0 7.9,-1.2 9.9,-3.7 2.1,-2.5 2.9,-6.2 2.9,-11.2 0,-9.2 -4.2,-14.1 -12,-14.1 z"
   inkscape:connector-curvature="0"
   style="fill:#479ebe" />
	<path
   id="path3855"
   d="m 1566.4,244.6 -49.7,0.4 c 0.4,6.2 2.1,10.8 5.4,14.5 3.3,3.3 7.5,5 12.4,5 3.7,0 7.5,-0.4 11.6,-1.7 4.1,-1.2 7.5,-2.5 9.5,-3.3 l 3.7,-1.7 6.2,12 c -1.2,0.8 -2.5,2.1 -4.6,3.3 -2.1,1.2 -5.8,3.3 -12,5.4 -6.2,2.1 -11.6,3.3 -17.4,3.3 -12.4,0 -22.4,-3.3 -29,-10.4 -6.6,-7 -9.9,-17 -9.9,-29.8 0,-13.3 3.7,-23.6 10.8,-31.5 7,-7.9 17,-11.6 29.4,-11.6 10.8,0 19.5,3.3 25.3,9.5 5.8,6.2 8.7,14.9 8.7,25.7 z m -34.4,-29 c -4.1,0 -7.5,1.2 -9.9,4.1 -2.4,2.9 -4.1,6.6 -4.6,11.2 h 26.9 c -0.4,-9.9 -4.5,-15.3 -12.4,-15.3 z"
   inkscape:connector-curvature="0"
   style="fill:#479ebe" />
</g>
</svg>