<svg width="1412.8" height="272.29" enable-background="new 89.8 17.8 1535.2 390" version="1.1" viewBox="89.8 17.8 1412.8 272.29" xmlns="http://www.w3.org/2000/svg"><path d="m380.24 161.5c0.2 26.1-5.1 49-16.6 70.3-5.7 10.4-12.5 19.8-20.5 28.5-8.4 9.3-17.9 17.5-28.3 24.7-1.8 1.2-3.5 2.4-5.3 3.5-7.7 4.5-17.6-1.1-17.5-10 0.2-5.4 0.6-11 1.1-16.4 1.4-14.5-2.1-27.6-10.6-39.4-5.4-7.4-12.2-13.4-20.1-18.1-7.5-4.4-8.1-14.3-1.2-19.6 9.3-7.2 16.1-16.3 18.1-28 2.4-14.3-0.6-27.3-10.6-38.3-7.2-8-16.1-13.1-27-14.5-13-1.7-24.7 1.5-34.8 10.1-8.6 7.4-14.2 16.6-15.5 27.9-2 16.7 3.5 30.6 16.7 41.3 7.5 6 6.6 16-2 20.7-17 9.3-28 23.2-31.7 42.5-1.1 5.7-1.1 11.3-0.5 17 0.5 3.8 0.8 7.7 0.9 11.5 0.3 5-1.8 8.7-6 11.2s-8.4 2-12.5-0.8c-23.4-15.7-41.6-36-53.7-61.5-6-12.8-9.8-26.5-11.6-40.6-0.9-6.5-1.4-13-1.2-19.5 0-21.7 3.9-42.5 13.3-62.3 6.6-13.9 15.4-26.1 25.8-37.4 12.5-13.4 26.8-24.4 43.3-32.4 13.6-6.6 27.9-10.7 42.8-12.7 7.2-0.9 14.5-1.4 21.9-1.4 23.2 0.5 45.2 5.3 65.7 16.3 10.3 5.6 19.8 12.2 28.3 20.1 12.1 10.9 22.5 23.1 30.6 37.2 8.9 15.2 14.5 31.7 16.9 49.2 1.3 7.6 1.9 15.1 1.8 20.9zm-229.8 88.9c0.2-2 0.5-3.6 0.6-5.3 3-21.7 13.9-38.9 30.5-52.8 1.1-0.9 1.2-1.5 0.3-2.6-12.2-15.5-16.1-33.2-13.3-52.3 2.6-17.5 11.5-31.5 25.2-42.5 16.1-13.1 34.8-16.9 55-13.4 15.7 2.7 28.5 10.9 38.8 22.9 13.6 15.7 18.1 34.1 15.4 54.3-1.7 12.7-6.9 23.7-15.2 33.3-0.8 0.8-0.8 1.2 0.2 2 3.8 3.2 7.2 6.8 10.4 10.6 9.8 11.8 15.8 25.2 18.1 40.3 0.5 2.7 0.6 5.4 0.8 8.7 13.6-12.4 24-26.5 30.9-43.1 10.3-24.9 11.6-50.5 5.7-76.4-10.6-46.9-55.9-91.2-115.2-92.7-56.8-1.5-103.7 36-119.1 83.4-15.9 48.3-0.9 96.8 30.9 125.6z" fill="#479ebe"/><g transform="translate(-64.156 -54.2)"><g fill="#494949"><path d="m545.8 192c-5-1.7-10.4-2.5-17-2.5-17 0-25.3 12.4-25.3 37.7 0 23.6 8.7 35.2 26.1 35.2 4.6 0 9.1-0.8 14.1-2.5s8.7-3.7 11.2-5.4l3.7-2.5 8.3 13.7-1.7 1.7c-0.8 0.8-2.5 2.1-5.4 4.1-2.9 2.1-5.4 3.7-8.7 5-2.9 1.2-6.6 2.9-11.2 4.1s-9.1 1.7-13.3 1.7c-15.7 0-27.8-4.6-36.4-13.7-8.7-9.1-12.8-22.8-12.8-40.6s4.6-31.9 14.1-42.2c9.1-10.4 22-15.3 37.7-15.3 5.4 0 11.2 0.4 17 1.7 5.8 1.2 10.4 2.5 13.7 3.7l5 1.7-0.8 29h-14.9z"/><path d="m610.8 198.2c12 0 21.1 3.3 27.8 10.4 6.6 7 9.9 17 9.9 29.8 0 13.3-3.7 24-10.8 31.5-7 7.9-17 11.6-29 11.6-25.3 0-38.1-13.7-38.1-41 0-13.3 3.7-23.6 10.8-31.1 7.5-7.4 17-11.2 29.4-11.2zm-0.8 17.4c-5.8 0-9.9 1.7-12.4 5.4s-4.1 9.9-4.1 19.1c0 8.7 1.2 14.9 3.7 18.6s6.6 5.8 12 5.8 9.5-2.1 12-5.8 3.7-10.4 3.7-19.5c0-7.9-1.2-14.1-3.7-17.8-2.1-4.1-5.8-5.8-11.2-5.8z"/><path d="m777.7 225.2v39.3l9.9 3.7v12h-39.8v-12l7.9-3.7v-35.2c0-4.1-0.8-7.5-2.1-9.1-1.2-1.7-3.7-2.9-6.6-2.9s-5.8 0.8-8.3 2.1c-2.9 1.2-4.6 2.5-6.2 3.7l-2.1 2.1v39.3l7.9 3.7v12h-37.7v-12l7.9-3.7v-35.2c0-4.1-0.8-7.5-2.1-9.1-1.2-2.1-3.3-2.9-6.6-2.9-2.9 0-5.8 0.8-8.7 2.1-2.9 1.2-5 2.5-6.2 3.7l-2.1 2.1v39.3l7.9 3.7v12h-41.4v-12l11.6-3.7v-48.9l-11.2-2.9v-12l30.7-1.2 1.2 10.8c0.8-0.8 2.5-2.1 4.1-3.3 1.7-1.2 5-3.3 9.5-5.4s8.7-3.3 12.8-3.3c9.9 0 16.6 4.1 20.3 12.8 1.7-1.7 3.3-2.9 5.4-4.6s5-3.3 9.5-5.4c4.1-2.1 8.3-2.9 12.4-2.9 7.5 0 13.3 2.5 17 7 3.1 5.1 5.1 11.3 5.1 20z"/><path d="m921 225.2v39.3l9.9 3.7v12h-39.8v-12l7.9-3.7v-35.2c0-4.1-0.8-7.5-2.1-9.1-1.2-1.7-3.7-2.9-6.6-2.9s-5.8 0.8-8.3 2.1c-2.9 1.2-4.6 2.5-6.2 3.7l-2.1 2.1v39.3l7.9 3.7v12h-37.6v-12l7.9-3.7v-35.2c0-4.1-0.8-7.5-2.1-9.1-1.2-2.1-3.3-2.9-6.6-2.9-2.9 0-5.8 0.8-8.7 2.1-2.9 1.2-5 2.5-6.2 3.7l-2.1 2.1v39.3l7.9 3.7v12h-41.4v-12l11.6-3.7v-48.9l-11.2-2.9v-12l30.7-1.2 1.2 10.8c0.8-0.8 2.5-2.1 4.1-3.3 1.7-1.2 5-3.3 9.5-5.4s8.7-3.3 12.8-3.3c9.9 0 16.6 4.1 20.3 12.8 1.7-1.7 3.3-2.9 5.4-4.6s5-3.3 9.5-5.4c4.1-2.1 8.3-2.9 12.4-2.9 7.5 0 13.3 2.5 17 7 3.4 5.1 5 11.3 5 20z"/><path d="m933.9 201.1 34-1.2v65l10.4 3.7v12h-44.3v-12l12-3.7v-48.9l-12-2.9v-12zm9.1-26c0-4.1 1.2-7.5 3.7-9.9s5.4-3.7 9.1-3.7c8.3 0 12.4 4.6 12.4 13.3 0 4.1-1.2 7.5-3.7 9.9-2.5 2.5-5.4 3.7-8.7 3.7-4.1 0-7-1.2-9.5-3.3-2.1-2.2-3.3-5.5-3.3-10z"/><path d="m1014.2 281.9c-8.3 0-14.1-2.5-17-7.9s-4.6-14.5-4.6-27.8v-27.8h-13.6v-14.1l13.7-2.1v-20.7l22-4.1v24.6h20.7v16.2h-20.7v33.6c0 5 0.4 8.3 1.7 10.4 1.2 2.1 3.3 2.9 6.2 2.9 3.7 0 7.5-1.2 11.6-3.3l5.4 10.8c-8.8 6-17.5 9.3-25.4 9.3z"/></g><g fill="#479ebe"><path d="m1112.4 192c-5-1.7-10.4-2.5-17-2.5-17 0-25.3 12.4-25.3 37.7 0 23.6 8.7 35.2 26.1 35.2 4.6 0 9.1-0.8 14.1-2.5s8.7-3.7 11.2-5.4l3.7-2.5 8.3 13.7-1.7 1.7c-0.8 0.8-2.5 2.1-5.4 4.1s-5.4 3.7-8.7 5c-2.9 1.2-6.6 2.9-11.2 4.1s-9.1 1.7-13.3 1.7c-15.7 0-27.8-4.6-36.4-13.7-8.7-9.1-12.8-22.8-12.8-40.6s4.6-31.9 14.1-42.2c9.1-10.4 22-15.3 37.7-15.3 5.4 0 11.2 0.4 17 1.7 5.8 1.2 10.4 2.5 13.7 3.7l5 1.7-0.8 29h-14.9z"/><path d="m1138.9 165.9 34-1.2v43.5c8.3-6.6 16.6-9.9 24.9-9.9 7.5 0 13.3 2.5 17 7s5.8 11.2 5.8 19.9v39.3l10.4 3.7v12h-40.2v-12l7.9-3.7v-36c0-7.9-3.3-12-9.9-12-2.5 0-5 0.8-7.9 2.1-2.9 1.2-5 2.5-6.2 4.1l-2.1 2.1v40.2l7.9 3.7v12h-41.8v-12l12-3.7v-83.7l-12-2.9v-12.4h0.2z"/><path d="m1313.7 279.4-29.4 1.2-2.9-9.9c-0.8 0.8-2.1 1.7-3.7 2.9-1.7 1.2-4.1 2.9-8.7 5-4.1 2.1-8.3 3.3-12 3.3-7.5 0-12.8-2.1-17-6.2-4.1-4.1-6.2-9.9-6.2-17.4 0-16.6 12-24.4 35.6-24.4h10.4v-8.3c0-7.5-3.7-11.2-11.6-11.2-2.5 0-4.6 0-6.6 0.4-2.1 0.4-3.7 0.8-5 1.2l-1.7 0.4-2.1 9.5h-12.8l-1.2-22c12-4.1 22.8-5.8 32.3-5.8 11.2 0 19.5 2.1 24 6.6 4.6 4.6 7 12 7 22.8v36.9l11.2 2.5v12.4h0.4zm-58-23.2c0 5.8 2.9 9.1 8.7 9.1 2.5 0 5-0.8 7.5-2.1 2.5-1.2 4.6-2.9 6.2-4.6l2.1-2.1v-9.9h-8.7c-5.8 0-9.9 0.8-12.4 2.5-2.1 1.3-3.4 3.8-3.4 7.1z"/><path d="m1319.1 201.1 31.1-1.2 1.2 10.4c1.2-0.8 2.5-2.1 4.1-3.3 1.7-1.2 5-2.9 9.9-5 5-2.1 9.1-3.3 13.3-3.3 7 0 12.8 2.5 16.6 7s5.8 11.2 5.8 19.5v39.3c1.2 0.4 3.3 1.2 5.4 2.1 2.5 0.8 4.1 1.7 5 1.7v12h-40.2v-12l7.9-3.7v-36c0-3.3-0.8-6.2-2.9-8.7-1.7-2.1-4.1-3.3-7.5-3.3-2.9 0-5.4 0.8-8.3 2.1-2.9 1.2-4.6 2.9-5.8 4.1l-2.1 2.1v39.3l7.9 3.7v12h-41.4v-12l11.6-3.7v-48.9l-11.6-2.9v-11.3z"/><path d="m1411.9 296.8c0-3.7 1.2-7 3.7-9.9s5-5 7.9-6.2l4.1-1.7c-0.8 0-1.7-0.4-2.5-0.4s-2.5-1.2-4.1-2.9c-1.7-1.7-2.5-3.7-2.5-6.2 0-2.9 2.5-8.7 7.9-17-7.5-5-11.6-12.8-11.6-23.2 0-9.9 3.3-17.4 9.9-22.8s15.3-7.9 25.7-7.9c6.6 0 12.4 1.2 17.4 3.7l25.7-0.4v12l-12.4 2.1s0.4 0.8 0.8 2.1c0.4 1.2 0.8 2.9 1.2 4.6s0.4 3.3 0.4 5.4c0 10.4-3.3 17.8-9.5 23.2-6.6 5-15.3 7.5-26.1 7.5h-3.3c-1.2 0-2.1-0.4-2.9-0.4s-1.2-0.4-1.2-0.4l-0.4 9.9h22c9.5 0 17 2.1 22 5.8s7.9 9.5 7.9 17c0 8.7-3.3 15.3-10.4 20.7-7 5-17.4 7.9-31.1 7.9-12.4 0-22-1.7-28.6-5-6.7-3.4-10-9.6-10-17.5zm44.3-13.6h-15.7c-0.4 0-1.2 0.4-2.1 1.2-0.8 0.4-2.1 1.7-3.3 3.3-1.2 1.7-2.1 3.3-2.1 5.4 0 3.7 1.7 5.8 4.6 7s7.9 1.7 14.1 1.7c6.6 0 11.6-0.8 14.5-2.5s4.6-4.1 4.6-7.9c0-3.3-1.2-5.4-3.3-6.6-2.2-0.8-5.9-1.6-11.3-1.6zm-6.2-69.6c-8.3 0-12.8 4.6-12.8 14.1 0 9.9 4.1 14.9 12 14.9 4.6 0 7.9-1.2 9.9-3.7 2.1-2.5 2.9-6.2 2.9-11.2 0-9.2-4.2-14.1-12-14.1z"/><path d="m1566.4 244.6-49.7 0.4c0.4 6.2 2.1 10.8 5.4 14.5 3.3 3.3 7.5 5 12.4 5 3.7 0 7.5-0.4 11.6-1.7 4.1-1.2 7.5-2.5 9.5-3.3l3.7-1.7 6.2 12c-1.2 0.8-2.5 2.1-4.6 3.3s-5.8 3.3-12 5.4-11.6 3.3-17.4 3.3c-12.4 0-22.4-3.3-29-10.4-6.6-7-9.9-17-9.9-29.8 0-13.3 3.7-23.6 10.8-31.5 7-7.9 17-11.6 29.4-11.6 10.8 0 19.5 3.3 25.3 9.5s8.7 14.9 8.7 25.7zm-34.4-29c-4.1 0-7.5 1.2-9.9 4.1s-4.1 6.6-4.6 11.2h26.9c-0.4-9.9-4.5-15.3-12.4-15.3z"/></g></g></svg>
