<?xml version="1.0" encoding="utf-8"?>
<!-- Generator: Adobe Illustrator 22.0.1, SVG Export Plug-In . SVG Version: 6.00 Build 0)  -->
<svg version="1.1" id="Layer_1" xmlns="http://www.w3.org/2000/svg" xmlns:xlink="http://www.w3.org/1999/xlink" x="0px" y="0px"
	 viewBox="0 0 966.2 86.5" style="enable-background:new 0 0 966.2 86.5;" xml:space="preserve">
<g>
	<g>
		<path d="M490.1,80.7c-5.1,0-9.9,0.2-14.6-0.1c-1.4-0.1-3-1.7-3.9-3.1c-7.8-12.2-15.5-24.5-23.2-36.8c-1-1.5-2-3-3.7-5.6
			c0,15.7,0,30.2,0,45.2c-5.8,0-11.2,0-16.9,0c0-24.2,0-48.5,0-73.5c5,0,10.1-0.2,15.1,0.1c1.2,0.1,2.6,1.8,3.4,3.1
			c7.8,12.2,15.4,24.5,23.1,36.8c1,1.5,2,3,3.7,5.6c0-15.7,0-30.2,0-45.2c5.8,0,11.2,0,16.9,0C490.1,31.4,490.1,55.6,490.1,80.7z"/>
		<path d="M257.4,43.4c0,21.6-16,38.3-36.5,38.3c-20.8,0-36.4-16.5-36.4-38.3c0-20.9,16.4-37.7,36.7-37.6
			C241.4,5.9,257.4,22.6,257.4,43.4z M202.4,44.3c0.1,0.8,0.2,2.8,0.6,4.7c2.2,10.2,8.3,15.6,17.7,15.7c9.6,0.1,16.4-5.4,17.9-15.9
			c0.8-5.4,0-11.3-1.6-16.5c-2-6.5-7.4-10.1-14.4-10.6C211,20.8,202.5,29.8,202.4,44.3z"/>
		<path d="M675.5,43.3c0-20.9,16.4-37.6,36.8-37.5c20.2,0.1,36.1,16.8,36.1,37.7c-0.1,21.6-16,38.3-36.6,38.2
			C691,81.6,675.5,65.1,675.5,43.3z M731.4,43c-1.6-4.5-2.5-9.4-4.9-13.3c-6.3-10.5-21.5-10.7-28.8-0.9c-5.8,7.8-5.8,21.4-0.1,29.2
			c4.4,6,12.5,8.4,20.2,5.9C725.7,61.4,730.5,53.6,731.4,43z"/>
		<path d="M333.7,80.6c0-24.7,0-49,0-73.1c9.5,0,18.9-1.1,27.9,0.2c18.7,2.8,30.8,19.3,29.7,38.5c-1.1,18.4-15.2,33-33.6,34.3
			C349.9,81,342.1,80.6,333.7,80.6z M350.6,65.7c9,0.2,15.9-2.7,20-10.5c4.5-8.5,4.1-17.1-1.3-25c-4.4-6.4-10.8-8.7-18.6-8.2
			C350.6,36.6,350.6,50.8,350.6,65.7z"/>
		<path d="M135.5,50.9c0,9.8,0,19.4,0,29.4c-5.7,0-11.1,0-16.8,0c0-24.3,0-48.6,0-73.2c5.4,0,10.7,0,16.5,0c0,9.4,0,18.6,0,28.3
			c7.8,0,15.1,0,23.1,0c0-9.3,0-18.7,0-28.4c5.8,0,11.1,0,16.7,0c0,24.4,0,48.7,0,73.3c-5.4,0-10.6,0-16.4,0c0-9.7,0-19.5,0-29.4
			C150.7,50.9,143.3,50.9,135.5,50.9z"/>
		<path d="M631.6,51.4c0,10.4,0,19.4,0,28.9c-5.8,0-11.1,0-16.8,0c0-24.3,0-48.5,0-74.1c11.8,0.7,23.8,0.4,35.4,2.3
			c8.4,1.3,13.1,8.2,14,16.8c0.9,9-1.5,16.8-9.4,22.2c-1.4,0.9-2.9,1.6-4.7,2.7c8,10,15.8,19.8,24.3,30.5c-7,0-13.1,0.2-19.2-0.1
			c-1.3-0.1-2.7-1.6-3.6-2.8C645.1,69.3,638.8,60.9,631.6,51.4z M631.4,20.6c0,3.3,0,6.3,0,9.2c0,3.1,0,6.2,0,9.2
			c11.7,0.6,16.3-2.4,16.1-10C647.2,22.1,642.6,19.6,631.4,20.6z"/>
		<path d="M306.5,6.9c5.8,0,11,0,16.1,0c0.2,0.3,0.7,0.5,0.7,0.8c0,16.6,0.5,33.3-0.1,49.9c-0.5,13.6-8,21.5-21.5,23.3
			c-6,0.8-12.4,0.5-18.3-0.8c-10.9-2.4-17-10.2-17.4-21c-0.7-17.2-0.2-34.5-0.2-52.1c5.5,0,10.7,0,16.6,0c0,1.8,0,3.5,0,5.3
			c0,13.1-0.1,26.3,0.1,39.4c0.2,9.4,4.2,13.2,12.7,13c7.4-0.2,11-4.1,11.2-13c0.3-13,0.1-26,0.1-38.9C306.5,11,306.5,9.2,306.5,6.9
			z"/>
		<path d="M799.9,6.9c13.8,0,27.3,0,41.1,0c0,4.8,0,9.5,0,14.6c-8.1,0-16,0-24.3,0c0,4.8,0,9.2,0,14.2c7.6,0,15.3,0,23.3,0
			c0,5.1,0,9.7,0,14.9c-7.6,0-15.4,0-23.4,0c0,5.3,0,10,0,15.3c8.1,0,16.2,0,24.5,0c0,5.2,0,9.7,0,14.6c-13.8,0-27.3,0-41.3,0
			C799.9,56.1,799.9,31.7,799.9,6.9z"/>
		<path d="M904.7,60.8c0.4,0.6,0.9,1.3,1.2,2c1.9,3.9,3.7,7.7,5.5,11.5c-13.6,11.6-37.8,9.3-51.8-4.7c-14.1-14.2-14.9-35.5-1.9-50.7
			c13.4-15.6,37.6-18.9,53.8-7c-2.2,4.5-4.4,9.1-6.8,14c-7.6-4.3-15.6-6.1-23.6-2.7c-4.1,1.7-8.2,4.7-10.9,8.2
			c-5.9,7.5-5.1,17.7,1.2,25.4C878.4,65.3,890,66.7,904.7,60.8z"/>
		<path d="M571.4,52.5c0,9.8,0,18.6,0,27.8c-5.6,0-10.9,0-16.6,0c0-24.3,0-48.5,0-74.1c12,0.7,24.2,0.3,35.9,2.3
			c10.5,1.8,15.8,11.9,14.5,23.5c-1.3,11.7-9.3,19.5-21.5,20.4C579.9,52.8,575.9,52.5,571.4,52.5z M571.7,20.2c0,6.5,0,12.3,0,18.4
			c5.9,0.2,12.1,1.2,15.4-4.6c1.4-2.4,1.3-6.8-0.1-9.2C583.7,19.2,577.6,20.3,571.7,20.2z"/>
		<path d="M932.7,21.6c-6.1,0-11.4,0-17,0c0-5,0-9.5,0-14.4c16.7,0,33.4,0,50.5,0c0,4.5,0,9.1,0,14.2c-5.3,0-10.7,0-16.6,0
			c0,19.9,0,39.3,0,59c-5.8,0-11,0-16.8,0C932.7,61.1,932.7,41.7,932.7,21.6z"/>
		<path d="M754.6,61.2c0.9,0.5,1.2,0.6,1.5,0.8c3.5,2.6,7.1,5.3,11.8,2.9c4.6-2.4,4.6-6.9,4.6-11.3c0-13.8,0-27.6,0-41.4
			c0-1.6,0-3.2,0-5.1c5.7,0,11,0,16.5,0c0.1,1.1,0.3,2.2,0.3,3.3c0,16.1,0.1,32.3,0,48.4c0,8.3-1.8,16.1-10.2,20.1
			c-9.2,4.3-18.3,3.9-27-1.9c-2.2-1.5-2.8-2.9-1.6-5.3C752,68.3,753.2,64.8,754.6,61.2z"/>
		<path d="M399.9,6.9c5.5,0,10.6,0,16.1,0c0,24.4,0,48.8,0,73.5c-5.2,0-10.5,0-16.1,0C399.9,56.1,399.9,31.7,399.9,6.9z"/>
		<path d="M518.2,7c0,24.7,0,48.9,0,73.4c-5.5,0-10.7,0-16.3,0c0-24.4,0-48.8,0-73.4C507.2,7,512.5,7,518.2,7z"/>
	</g>
	<g>
		<rect width="23" height="86.5"/>
		<rect x="55" width="23" height="86.5"/>
		<rect x="27.5" y="45.5" width="23" height="41"/>
		<rect x="27.5" width="23" height="41"/>
	</g>
</g>
</svg>
