<svg viewBox="0 0 966.2 86.5" xmlns="http://www.w3.org/2000/svg"><path d="M490.1 80.7c-5.1 0-9.9.2-14.6-.1-1.4-.1-3-1.7-3.9-3.1-7.8-12.2-15.5-24.5-23.2-36.8-1-1.5-2-3-3.7-5.6v45.2h-16.9V6.8c5 0 10.1-.2 15.1.1 1.2.1 2.6 1.8 3.4 3.1 7.8 12.2 15.4 24.5 23.1 36.8 1 1.5 2 3 3.7 5.6V7.2H490c.1 24.2.1 48.4.1 73.5zM257.4 43.4c0 21.6-16 38.3-36.5 38.3-20.8 0-36.4-16.5-36.4-38.3 0-20.9 16.4-37.7 36.7-37.6 20.2.1 36.2 16.8 36.2 37.6zm-55 .9c.1.8.2 2.8.6 4.7 2.2 10.2 8.3 15.6 17.7 15.7 9.6.1 16.4-5.4 17.9-15.9.8-5.4 0-11.3-1.6-16.5-2-6.5-7.4-10.1-14.4-10.6-11.6-.9-20.1 8.1-20.2 22.6zm473.1-1c0-20.9 16.4-37.6 36.8-37.5 20.2.1 36.1 16.8 36.1 37.7-.1 21.6-16 38.3-36.6 38.2-20.8-.1-36.3-16.6-36.3-38.4zm55.9-.3c-1.6-4.5-2.5-9.4-4.9-13.3-6.3-10.5-21.5-10.7-28.8-.9-5.8 7.8-5.8 21.4-.1 29.2 4.4 6 12.5 8.4 20.2 5.9 7.9-2.5 12.7-10.3 13.6-20.9zM333.7 80.6V7.5c9.5 0 18.9-1.1 27.9.2 18.7 2.8 30.8 19.3 29.7 38.5-1.1 18.4-15.2 33-33.6 34.3-7.8.5-15.6.1-24 .1zm16.9-14.9c9 .2 15.9-2.7 20-10.5 4.5-8.5 4.1-17.1-1.3-25-4.4-6.4-10.8-8.7-18.6-8.2-.1 14.6-.1 28.8-.1 43.7zM135.5 50.9v29.4h-16.8V7.1h16.5v28.3h23.1V7H175v73.3h-16.4V50.9h-23.1zm496.1.5v28.9h-16.8V6.2c11.8.7 23.8.4 35.4 2.3 8.4 1.3 13.1 8.2 14 16.8.9 9-1.5 16.8-9.4 22.2-1.4.9-2.9 1.6-4.7 2.7 8 10 15.8 19.8 24.3 30.5-7 0-13.1.2-19.2-.1-1.3-.1-2.7-1.6-3.6-2.8-6.5-8.5-12.8-16.9-20-26.4zm-.2-30.8V39c11.7.6 16.3-2.4 16.1-10-.3-6.9-4.9-9.4-16.1-8.4zM306.5 6.9h16.1c.2.3.7.5.7.8 0 16.6.5 33.3-.1 49.9-.5 13.6-8 21.5-21.5 23.3-6 .8-12.4.5-18.3-.8-10.9-2.4-17-10.2-17.4-21-.7-17.2-.2-34.5-.2-52.1h16.6v5.3c0 13.1-.1 26.3.1 39.4.2 9.4 4.2 13.2 12.7 13 7.4-.2 11-4.1 11.2-13 .3-13 .1-26 .1-38.9V6.9zm493.4 0H841v14.6h-24.3v14.2H840v14.9h-23.4v15.3h24.5v14.6h-41.3c.1-24.4.1-48.8.1-73.6zm104.8 53.9c.4.6.9 1.3 1.2 2 1.9 3.9 3.7 7.7 5.5 11.5-13.6 11.6-37.8 9.3-51.8-4.7-14.1-14.2-14.9-35.5-1.9-50.7 13.4-15.6 37.6-18.9 53.8-7-2.2 4.5-4.4 9.1-6.8 14-7.6-4.3-15.6-6.1-23.6-2.7-4.1 1.7-8.2 4.7-10.9 8.2-5.9 7.5-5.1 17.7 1.2 25.4 7 8.5 18.6 9.9 33.3 4zm-333.3-8.3v27.8h-16.6V6.2c12 .7 24.2.3 35.9 2.3 10.5 1.8 15.8 11.9 14.5 23.5-1.3 11.7-9.3 19.5-21.5 20.4-3.8.4-7.8.1-12.3.1zm.3-32.3v18.4c5.9.2 12.1 1.2 15.4-4.6 1.4-2.4 1.3-6.8-.1-9.2-3.3-5.6-9.4-4.5-15.3-4.6zm361 1.4h-17V7.2h50.5v14.2h-16.6v59h-16.8c-.1-19.3-.1-38.7-.1-58.8zM754.6 61.2c.9.5 1.2.6 1.5.8 3.5 2.6 7.1 5.3 11.8 2.9 4.6-2.4 4.6-6.9 4.6-11.3V7.1H789c.1 1.1.3 2.2.3 3.3 0 16.1.1 32.3 0 48.4 0 8.3-1.8 16.1-10.2 20.1-9.2 4.3-18.3 3.9-27-1.9-2.2-1.5-2.8-2.9-1.6-5.3 1.5-3.4 2.7-6.9 4.1-10.5zM399.9 6.9H416v73.5h-16.1V6.9zm118.3.1v73.4h-16.3V7h16.3zM0 0h23v86.5H0zm55 0h23v86.5H55zM27.5 45.5h23v41h-23zm0-45.5h23v41h-23z"/></svg>