<?xml version="1.0" encoding="UTF-8" standalone="no"?>
<!-- Generator: Adobe Illustrator 22.0.1, SVG Export Plug-In . SVG Version: 6.00 Build 0)  -->

<svg
   xmlns:dc="http://purl.org/dc/elements/1.1/"
   xmlns:cc="http://creativecommons.org/ns#"
   xmlns:rdf="http://www.w3.org/1999/02/22-rdf-syntax-ns#"
   xmlns:svg="http://www.w3.org/2000/svg"
   xmlns="http://www.w3.org/2000/svg"
   xmlns:sodipodi="http://sodipodi.sourceforge.net/DTD/sodipodi-0.dtd"
   xmlns:inkscape="http://www.inkscape.org/namespaces/inkscape"
   version="1.1"
   id="Layer_1"
   x="0px"
   y="0px"
   viewBox="0 0 1094.1999 214.5"
   xml:space="preserve"
   sodipodi:docname="houdini_project_border_64.svg"
   width="1094.2"
   height="214.5"
   inkscape:version="0.92.3 (2405546, 2018-03-11)"><metadata
   id="metadata49"><rdf:RDF><cc:Work
       rdf:about=""><dc:format>image/svg+xml</dc:format><dc:type
         rdf:resource="http://purl.org/dc/dcmitype/StillImage" /><dc:title></dc:title></cc:Work></rdf:RDF></metadata><defs
   id="defs47" /><sodipodi:namedview
   pagecolor="#ffffff"
   bordercolor="#666666"
   borderopacity="1"
   objecttolerance="10"
   gridtolerance="10"
   guidetolerance="10"
   inkscape:pageopacity="0"
   inkscape:pageshadow="2"
   inkscape:window-width="1855"
   inkscape:window-height="1056"
   id="namedview45"
   showgrid="false"
   fit-margin-top="64"
   fit-margin-left="64"
   fit-margin-right="64"
   fit-margin-bottom="64"
   inkscape:zoom="0.30221486"
   inkscape:cx="547.10001"
   inkscape:cy="107.25"
   inkscape:window-x="1985"
   inkscape:window-y="24"
   inkscape:window-maximized="1"
   inkscape:current-layer="Layer_1" />
<g
   id="g42"
   transform="translate(64,64)">
	<g
   id="g30">
		<path
   d="m 490.1,80.7 c -5.1,0 -9.9,0.2 -14.6,-0.1 -1.4,-0.1 -3,-1.7 -3.9,-3.1 -7.8,-12.2 -15.5,-24.5 -23.2,-36.8 -1,-1.5 -2,-3 -3.7,-5.6 0,15.7 0,30.2 0,45.2 -5.8,0 -11.2,0 -16.9,0 0,-24.2 0,-48.5 0,-73.5 5,0 10.1,-0.2 15.1,0.1 1.2,0.1 2.6,1.8 3.4,3.1 7.8,12.2 15.4,24.5 23.1,36.8 1,1.5 2,3 3.7,5.6 0,-15.7 0,-30.2 0,-45.2 5.8,0 11.2,0 16.9,0 0.1,24.2 0.1,48.4 0.1,73.5 z"
   id="path2"
   inkscape:connector-curvature="0" />
		<path
   d="m 257.4,43.4 c 0,21.6 -16,38.3 -36.5,38.3 -20.8,0 -36.4,-16.5 -36.4,-38.3 0,-20.9 16.4,-37.7 36.7,-37.6 20.2,0.1 36.2,16.8 36.2,37.6 z m -55,0.9 c 0.1,0.8 0.2,2.8 0.6,4.7 2.2,10.2 8.3,15.6 17.7,15.7 9.6,0.1 16.4,-5.4 17.9,-15.9 0.8,-5.4 0,-11.3 -1.6,-16.5 -2,-6.5 -7.4,-10.1 -14.4,-10.6 -11.6,-0.9 -20.1,8.1 -20.2,22.6 z"
   id="path4"
   inkscape:connector-curvature="0" />
		<path
   d="m 675.5,43.3 c 0,-20.9 16.4,-37.6 36.8,-37.5 20.2,0.1 36.1,16.8 36.1,37.7 -0.1,21.6 -16,38.3 -36.6,38.2 C 691,81.6 675.5,65.1 675.5,43.3 Z M 731.4,43 C 729.8,38.5 728.9,33.6 726.5,29.7 720.2,19.2 705,19 697.7,28.8 c -5.8,7.8 -5.8,21.4 -0.1,29.2 4.4,6 12.5,8.4 20.2,5.9 7.9,-2.5 12.7,-10.3 13.6,-20.9 z"
   id="path6"
   inkscape:connector-curvature="0" />
		<path
   d="m 333.7,80.6 c 0,-24.7 0,-49 0,-73.1 9.5,0 18.9,-1.1 27.9,0.2 18.7,2.8 30.8,19.3 29.7,38.5 -1.1,18.4 -15.2,33 -33.6,34.3 -7.8,0.5 -15.6,0.1 -24,0.1 z m 16.9,-14.9 c 9,0.2 15.9,-2.7 20,-10.5 4.5,-8.5 4.1,-17.1 -1.3,-25 -4.4,-6.4 -10.8,-8.7 -18.6,-8.2 -0.1,14.6 -0.1,28.8 -0.1,43.7 z"
   id="path8"
   inkscape:connector-curvature="0" />
		<path
   d="m 135.5,50.9 c 0,9.8 0,19.4 0,29.4 -5.7,0 -11.1,0 -16.8,0 0,-24.3 0,-48.6 0,-73.2 5.4,0 10.7,0 16.5,0 0,9.4 0,18.6 0,28.3 7.8,0 15.1,0 23.1,0 0,-9.3 0,-18.7 0,-28.4 5.8,0 11.1,0 16.7,0 0,24.4 0,48.7 0,73.3 -5.4,0 -10.6,0 -16.4,0 0,-9.7 0,-19.5 0,-29.4 -7.9,0 -15.3,0 -23.1,0 z"
   id="path10"
   inkscape:connector-curvature="0" />
		<path
   d="m 631.6,51.4 c 0,10.4 0,19.4 0,28.9 -5.8,0 -11.1,0 -16.8,0 0,-24.3 0,-48.5 0,-74.1 11.8,0.7 23.8,0.4 35.4,2.3 8.4,1.3 13.1,8.2 14,16.8 0.9,9 -1.5,16.8 -9.4,22.2 -1.4,0.9 -2.9,1.6 -4.7,2.7 8,10 15.8,19.8 24.3,30.5 -7,0 -13.1,0.2 -19.2,-0.1 -1.3,-0.1 -2.7,-1.6 -3.6,-2.8 -6.5,-8.5 -12.8,-16.9 -20,-26.4 z m -0.2,-30.8 c 0,3.3 0,6.3 0,9.2 0,3.1 0,6.2 0,9.2 11.7,0.6 16.3,-2.4 16.1,-10 -0.3,-6.9 -4.9,-9.4 -16.1,-8.4 z"
   id="path12"
   inkscape:connector-curvature="0" />
		<path
   d="m 306.5,6.9 c 5.8,0 11,0 16.1,0 0.2,0.3 0.7,0.5 0.7,0.8 0,16.6 0.5,33.3 -0.1,49.9 -0.5,13.6 -8,21.5 -21.5,23.3 -6,0.8 -12.4,0.5 -18.3,-0.8 -10.9,-2.4 -17,-10.2 -17.4,-21 -0.7,-17.2 -0.2,-34.5 -0.2,-52.1 5.5,0 10.7,0 16.6,0 0,1.8 0,3.5 0,5.3 0,13.1 -0.1,26.3 0.1,39.4 0.2,9.4 4.2,13.2 12.7,13 7.4,-0.2 11,-4.1 11.2,-13 0.3,-13 0.1,-26 0.1,-38.9 0,-1.8 0,-3.6 0,-5.9 z"
   id="path14"
   inkscape:connector-curvature="0" />
		<path
   d="m 799.9,6.9 c 13.8,0 27.3,0 41.1,0 0,4.8 0,9.5 0,14.6 -8.1,0 -16,0 -24.3,0 0,4.8 0,9.2 0,14.2 7.6,0 15.3,0 23.3,0 0,5.1 0,9.7 0,14.9 -7.6,0 -15.4,0 -23.4,0 0,5.3 0,10 0,15.3 8.1,0 16.2,0 24.5,0 0,5.2 0,9.7 0,14.6 -13.8,0 -27.3,0 -41.3,0 0.1,-24.4 0.1,-48.8 0.1,-73.6 z"
   id="path16"
   inkscape:connector-curvature="0" />
		<path
   d="m 904.7,60.8 c 0.4,0.6 0.9,1.3 1.2,2 1.9,3.9 3.7,7.7 5.5,11.5 -13.6,11.6 -37.8,9.3 -51.8,-4.7 -14.1,-14.2 -14.9,-35.5 -1.9,-50.7 13.4,-15.6 37.6,-18.9 53.8,-7 -2.2,4.5 -4.4,9.1 -6.8,14 -7.6,-4.3 -15.6,-6.1 -23.6,-2.7 -4.1,1.7 -8.2,4.7 -10.9,8.2 -5.9,7.5 -5.1,17.7 1.2,25.4 7,8.5 18.6,9.9 33.3,4 z"
   id="path18"
   inkscape:connector-curvature="0" />
		<path
   d="m 571.4,52.5 c 0,9.8 0,18.6 0,27.8 -5.6,0 -10.9,0 -16.6,0 0,-24.3 0,-48.5 0,-74.1 12,0.7 24.2,0.3 35.9,2.3 10.5,1.8 15.8,11.9 14.5,23.5 -1.3,11.7 -9.3,19.5 -21.5,20.4 -3.8,0.4 -7.8,0.1 -12.3,0.1 z m 0.3,-32.3 c 0,6.5 0,12.3 0,18.4 5.9,0.2 12.1,1.2 15.4,-4.6 1.4,-2.4 1.3,-6.8 -0.1,-9.2 -3.3,-5.6 -9.4,-4.5 -15.3,-4.6 z"
   id="path20"
   inkscape:connector-curvature="0" />
		<path
   d="m 932.7,21.6 c -6.1,0 -11.4,0 -17,0 0,-5 0,-9.5 0,-14.4 16.7,0 33.4,0 50.5,0 0,4.5 0,9.1 0,14.2 -5.3,0 -10.7,0 -16.6,0 0,19.9 0,39.3 0,59 -5.8,0 -11,0 -16.8,0 -0.1,-19.3 -0.1,-38.7 -0.1,-58.8 z"
   id="path22"
   inkscape:connector-curvature="0" />
		<path
   d="m 754.6,61.2 c 0.9,0.5 1.2,0.6 1.5,0.8 3.5,2.6 7.1,5.3 11.8,2.9 4.6,-2.4 4.6,-6.9 4.6,-11.3 0,-13.8 0,-27.6 0,-41.4 0,-1.6 0,-3.2 0,-5.1 5.7,0 11,0 16.5,0 0.1,1.1 0.3,2.2 0.3,3.3 0,16.1 0.1,32.3 0,48.4 0,8.3 -1.8,16.1 -10.2,20.1 -9.2,4.3 -18.3,3.9 -27,-1.9 -2.2,-1.5 -2.8,-2.9 -1.6,-5.3 1.5,-3.4 2.7,-6.9 4.1,-10.5 z"
   id="path24"
   inkscape:connector-curvature="0" />
		<path
   d="m 399.9,6.9 c 5.5,0 10.6,0 16.1,0 0,24.4 0,48.8 0,73.5 -5.2,0 -10.5,0 -16.1,0 0,-24.3 0,-48.7 0,-73.5 z"
   id="path26"
   inkscape:connector-curvature="0" />
		<path
   d="m 518.2,7 c 0,24.7 0,48.9 0,73.4 -5.5,0 -10.7,0 -16.3,0 0,-24.4 0,-48.8 0,-73.4 5.3,0 10.6,0 16.3,0 z"
   id="path28"
   inkscape:connector-curvature="0" />
	</g>
	<g
   id="g40">
		<rect
   width="23"
   height="86.5"
   id="rect32"
   x="0"
   y="0" />
		<rect
   x="55"
   width="23"
   height="86.5"
   id="rect34"
   y="0" />
		<rect
   x="27.5"
   y="45.5"
   width="23"
   height="41"
   id="rect36" />
		<rect
   x="27.5"
   width="23"
   height="41"
   id="rect38"
   y="0" />
	</g>
</g>
</svg>